<?xml version="1.0" encoding="utf-8"?>
<!-- Generator: Adobe Illustrator 23.0.3, SVG Export Plug-In . SVG Version: 6.00 Build 0)  -->
<svg version="1.1" id="Layer_1" xmlns="http://www.w3.org/2000/svg" xmlns:xlink="http://www.w3.org/1999/xlink" x="0px" y="0px"
	 viewBox="0 0 261 79.29" style="enable-background:new 0 0 261 79.29;" xml:space="preserve">
<style type="text/css">
	.st0{display:none;opacity:0.76;}
	.st1{display:inline;}
	.st2{clip-path:url(#SVGID_2_);}
	.st3{clip-path:url(#SVGID_4_);fill:url(#SVGID_5_);}
	.st4{display:none;}
	.st5{display:inline;fill:#54504E;}
	.st6{clip-path:url(#SVGID_7_);fill:url(#SVGID_8_);}
	.st7{clip-path:url(#SVGID_10_);fill:url(#SVGID_11_);}
	.st8{clip-path:url(#SVGID_13_);fill:url(#SVGID_14_);}
	.st9{clip-path:url(#SVGID_16_);fill:url(#SVGID_17_);}
	.st10{clip-path:url(#SVGID_19_);fill:url(#SVGID_20_);}
	.st11{clip-path:url(#SVGID_22_);fill:url(#SVGID_23_);}
	.st12{clip-path:url(#SVGID_25_);fill:url(#SVGID_26_);}
	.st13{clip-path:url(#SVGID_28_);fill:url(#SVGID_29_);}
	.st14{clip-path:url(#SVGID_31_);fill:url(#SVGID_32_);}
	.st15{clip-path:url(#SVGID_34_);fill:url(#SVGID_35_);}
	.st16{clip-path:url(#SVGID_37_);fill:url(#SVGID_38_);}
	.st17{clip-path:url(#SVGID_40_);fill:url(#SVGID_41_);}
	.st18{clip-path:url(#SVGID_43_);fill:url(#SVGID_44_);}
	.st19{clip-path:url(#SVGID_46_);fill:url(#SVGID_47_);}
	.st20{clip-path:url(#SVGID_49_);fill:url(#SVGID_50_);}
	.st21{clip-path:url(#SVGID_52_);fill:url(#SVGID_53_);}
	.st22{clip-path:url(#SVGID_55_);fill:url(#SVGID_56_);}
	.st23{display:inline;fill:#000204;}
	.st24{clip-path:url(#SVGID_58_);fill:url(#SVGID_59_);}
	.st25{clip-path:url(#SVGID_61_);fill:url(#SVGID_62_);}
	.st26{clip-path:url(#SVGID_64_);fill:url(#SVGID_65_);}
	.st27{display:inline;fill:#151416;}
	.st28{clip-path:url(#SVGID_67_);fill:url(#SVGID_68_);}
	.st29{clip-path:url(#SVGID_70_);fill:#353535;}
</style>
<g class="st0">
	<g class="st1">
		<defs>
			<rect id="SVGID_1_" x="-40.27" y="29.9" width="340.16" height="41"/>
		</defs>
		<clipPath id="SVGID_2_">
			<use xlink:href="#SVGID_1_"  style="overflow:visible;"/>
		</clipPath>
		<g class="st2">
			<defs>
				<rect id="SVGID_3_" x="-40.27" y="29.9" width="340.16" height="41"/>
			</defs>
			<clipPath id="SVGID_4_">
				<use xlink:href="#SVGID_3_"  style="overflow:visible;"/>
			</clipPath>
			
				<linearGradient id="SVGID_5_" gradientUnits="userSpaceOnUse" x1="-222.4561" y1="343.8931" x2="-221.9764" y2="343.8931" gradientTransform="matrix(709.1194 0 0 709.1194 157707.6406 -243805.375)">
				<stop  offset="0" style="stop-color:#983F10"/>
				<stop  offset="0.9804" style="stop-color:#E95D0F"/>
				<stop  offset="1" style="stop-color:#E95D0F"/>
			</linearGradient>
			<rect x="-40.27" y="35.38" class="st3" width="340.16" height="41"/>
		</g>
	</g>
</g>
<g class="st4">
	<path class="st5" d="M165.31,82.6c-0.15-0.01-0.3-0.01-0.43-0.01s-0.27,0-0.4,0c-0.13,0-0.27,0-0.4,0c-0.14,0-0.27,0-0.4,0.01
		c-0.1-0.22-0.21-0.44-0.31-0.66c-0.11-0.23-0.22-0.45-0.34-0.68c-0.2,0-0.41-0.01-0.61-0.01c-0.2,0-0.41,0-0.61,0
		c-0.16,0-0.33,0-0.49,0c-0.16,0-0.33,0.01-0.49,0.01c-0.13,0.23-0.24,0.45-0.35,0.68c-0.11,0.23-0.21,0.45-0.29,0.66
		c-0.08-0.01-0.15-0.01-0.22-0.01c-0.07,0-0.15,0-0.22,0c-0.08,0-0.15,0-0.23,0c-0.08,0-0.16,0-0.25,0.01
		c0.08-0.11,0.18-0.27,0.3-0.48c0.13-0.2,0.27-0.43,0.42-0.69c0.15-0.26,0.32-0.53,0.49-0.82c0.17-0.29,0.35-0.59,0.52-0.89
		c0.17-0.3,0.35-0.6,0.51-0.89c0.17-0.29,0.32-0.56,0.46-0.81c0.06,0.01,0.12,0.02,0.18,0.02c0.06,0.01,0.12,0.01,0.18,0.01
		s0.12,0,0.18-0.01c0.06-0.01,0.12-0.01,0.18-0.02c0.2,0.38,0.42,0.78,0.65,1.2c0.23,0.43,0.46,0.85,0.7,1.26
		c0.23,0.41,0.46,0.8,0.68,1.17C164.92,82.04,165.13,82.35,165.31,82.6z M161.94,79.3c-0.17,0.26-0.32,0.53-0.47,0.78
		c-0.15,0.26-0.29,0.52-0.43,0.79h1.74c-0.14-0.27-0.28-0.53-0.41-0.79C162.24,79.83,162.09,79.57,161.94,79.3z"/>
	<path class="st5" d="M166.27,78.91c-0.01-0.28-0.03-0.57-0.06-0.86c0.11,0.01,0.23,0.02,0.35,0.02c0.13,0.01,0.27,0.01,0.43,0.01
		c0.16,0,0.3,0,0.43-0.01c0.13-0.01,0.24-0.01,0.35-0.02c-0.03,0.29-0.04,0.57-0.06,0.86c-0.01,0.28-0.02,0.61-0.02,0.98v0.9
		c0,0.25,0,0.49,0.01,0.73c0,0.23,0.01,0.44,0.01,0.61c0.36,0,0.72-0.01,1.09-0.02c0.36-0.01,0.73-0.04,1.09-0.07
		c-0.01,0.05-0.02,0.09-0.03,0.13c-0.01,0.04-0.01,0.09-0.01,0.17c0,0.07,0,0.13,0.01,0.17c0.01,0.04,0.02,0.07,0.03,0.1
		c-0.17,0-0.38-0.01-0.63-0.01c-0.25,0-0.59,0-1.03,0c-0.39,0-0.7,0-0.94,0c-0.23,0-0.42,0-0.57,0s-0.25,0-0.32,0
		c-0.07,0-0.13,0.01-0.19,0.01c0.03-0.27,0.04-0.55,0.06-0.84c0.01-0.28,0.02-0.61,0.02-0.98v-0.9
		C166.29,79.52,166.28,79.2,166.27,78.91z"/>
	<path class="st5" d="M171.07,78.91c-0.01-0.28-0.03-0.57-0.06-0.86c0.11,0.01,0.22,0.02,0.35,0.02c0.13,0.01,0.27,0.01,0.43,0.01
		c0.16,0,0.3,0,0.43-0.01c0.13-0.01,0.24-0.01,0.35-0.02c-0.03,0.29-0.04,0.57-0.06,0.86c-0.01,0.28-0.02,0.61-0.02,0.98v0.9
		c0,0.37,0.01,0.69,0.02,0.98c0.01,0.28,0.03,0.56,0.06,0.84c-0.11-0.01-0.23-0.01-0.35-0.01c-0.13,0-0.27,0-0.43,0
		c-0.16,0-0.3,0-0.43,0c-0.13,0-0.24,0-0.35,0.01c0.03-0.27,0.04-0.55,0.06-0.84c0.01-0.28,0.02-0.61,0.02-0.98v-0.9
		C171.09,79.52,171.08,79.2,171.07,78.91z"/>
	<path class="st5" d="M174.75,81.12c-0.05,0.49-0.1,0.99-0.15,1.48c-0.08-0.01-0.15-0.01-0.23-0.01c-0.08,0-0.15,0-0.22,0
		c-0.08,0-0.15,0-0.22,0c-0.07,0-0.15,0-0.22,0.01c0.2-0.76,0.38-1.51,0.54-2.26s0.3-1.51,0.44-2.28c0.07,0.01,0.13,0.02,0.2,0.02
		c0.06,0.01,0.13,0.01,0.2,0.01c0.06,0,0.12,0,0.18-0.01c0.06-0.01,0.13-0.01,0.2-0.02c0.17,0.26,0.35,0.53,0.54,0.81
		s0.37,0.55,0.56,0.82c0.19,0.27,0.37,0.54,0.56,0.8s0.37,0.51,0.54,0.74c0.38-0.49,0.76-1.01,1.14-1.55
		c0.38-0.54,0.74-1.08,1.08-1.61c0.16,0.02,0.29,0.03,0.41,0.03c0.11,0,0.24-0.01,0.4-0.03c0.06,0.38,0.13,0.79,0.2,1.22
		c0.07,0.44,0.14,0.86,0.21,1.28c0.07,0.42,0.14,0.81,0.21,1.17c0.07,0.36,0.13,0.65,0.19,0.87c-0.13-0.01-0.26-0.01-0.39-0.01
		c-0.13,0-0.26,0-0.39,0c-0.13,0-0.26,0-0.39,0c-0.13,0-0.27,0-0.4,0.01c-0.03-0.45-0.08-0.95-0.16-1.48
		c-0.07-0.53-0.15-1.05-0.22-1.58h-0.02c-0.36,0.52-0.72,1.03-1.07,1.54c-0.35,0.5-0.69,1.01-1.04,1.52c-0.03,0-0.06-0.01-0.09-0.01
		c-0.03,0-0.06,0-0.09,0c-0.03,0-0.06,0-0.09,0c-0.03,0-0.06,0.01-0.09,0.01c-0.34-0.49-0.68-0.99-1.02-1.48
		c-0.34-0.49-0.69-0.99-1.05-1.5h-0.02C174.88,80.13,174.8,80.63,174.75,81.12z"/>
	<path class="st5" d="M182.56,78.91c-0.01-0.28-0.03-0.57-0.05-0.86c0.29,0,0.57,0.01,0.85,0.02c0.28,0.01,0.56,0.01,0.85,0.01
		c0.47,0,0.89,0,1.25-0.01c0.36-0.01,0.61-0.01,0.74-0.02c-0.03,0.07-0.04,0.16-0.04,0.28c0,0.07,0,0.13,0.01,0.17
		c0.01,0.04,0.02,0.08,0.03,0.13c-0.18-0.01-0.39-0.02-0.6-0.03c-0.22-0.01-0.43-0.02-0.64-0.03c-0.21-0.01-0.39-0.02-0.56-0.02
		c-0.16,0-0.28-0.01-0.35-0.01c-0.03,0.24-0.04,0.48-0.04,0.72c0,0.24-0.01,0.48-0.01,0.72c0.41,0,0.79-0.01,1.12-0.02
		c0.33-0.01,0.68-0.02,1.04-0.03c-0.02,0.08-0.03,0.13-0.04,0.17c-0.01,0.04-0.01,0.08-0.01,0.13c0,0.04,0,0.07,0.01,0.11
		c0.01,0.04,0.02,0.09,0.03,0.16c-0.72-0.04-1.44-0.06-2.16-0.06c0,0.14,0,0.28,0,0.42c0,0.14,0,0.28,0,0.42
		c0,0.29,0.01,0.56,0.03,0.83c0.36,0,0.72-0.01,1.09-0.02c0.36-0.01,0.73-0.04,1.09-0.07c-0.01,0.05-0.02,0.09-0.03,0.13
		c-0.01,0.04-0.01,0.09-0.01,0.17c0,0.07,0,0.13,0.01,0.17c0.01,0.04,0.02,0.07,0.03,0.1c-0.17,0-0.38-0.01-0.63-0.01
		c-0.25,0-0.59,0-1.03,0c-0.39,0-0.7,0-0.94,0c-0.23,0-0.42,0-0.57,0s-0.25,0-0.32,0s-0.13,0.01-0.19,0.01
		c0.02-0.27,0.04-0.55,0.05-0.84c0.01-0.28,0.02-0.61,0.02-0.98v-0.9C182.58,79.52,182.57,79.2,182.56,78.91z"/>
	<path class="st5" d="M187.5,78.61c-0.01-0.21-0.02-0.39-0.03-0.55c0.18,0.02,0.32,0.03,0.43,0.03c0.11,0,0.25-0.01,0.43-0.03
		c0.69,0.53,1.38,1.06,2.05,1.58c0.68,0.52,1.37,1.04,2.08,1.58v-0.58v-0.64c0-0.22,0-0.43,0-0.64c0-0.21-0.01-0.4-0.01-0.58
		c0-0.18-0.01-0.33-0.02-0.46c-0.01-0.13-0.02-0.21-0.03-0.26c0.18,0.02,0.32,0.03,0.43,0.03c0.11,0,0.25-0.01,0.43-0.03
		c-0.03,0.4-0.06,0.76-0.08,1.09c-0.02,0.32-0.03,0.63-0.05,0.92c-0.01,0.29-0.02,0.57-0.02,0.85c0,0.28,0,0.58,0,0.9v0.79
		c-0.13-0.01-0.26-0.01-0.39-0.01c-0.14,0-0.26,0-0.37,0.01c-1.31-1.06-2.69-2.12-4.16-3.2c-0.01,0.13-0.01,0.26-0.01,0.38
		c0,0.13,0,0.26,0,0.39v0.77c0,0.27,0,0.49,0,0.68c0,0.19,0.01,0.34,0.01,0.47c0.01,0.13,0.01,0.23,0.02,0.31
		c0.01,0.08,0.01,0.15,0.02,0.2c-0.08-0.01-0.15-0.01-0.23-0.01c-0.08,0-0.15,0-0.22,0c-0.15,0-0.29,0-0.44,0.01
		c0.01-0.04,0.03-0.16,0.05-0.38c0.02-0.22,0.04-0.48,0.06-0.79c0.02-0.31,0.04-0.65,0.06-1.01c0.02-0.36,0.02-0.71,0.02-1.05
		C187.52,79.07,187.51,78.81,187.5,78.61z"/>
	<path class="st5" d="M195.95,78.79c0-0.11-0.01-0.18-0.02-0.23c-0.1,0-0.21,0-0.35,0.01c-0.14,0-0.29,0.01-0.45,0.02
		c-0.16,0.01-0.32,0.02-0.49,0.03c-0.16,0.01-0.32,0.02-0.46,0.04c0.01-0.05,0.02-0.1,0.03-0.15c0.01-0.05,0.01-0.1,0.01-0.15
		c0-0.05,0-0.1-0.01-0.15c-0.01-0.05-0.02-0.1-0.03-0.15c0.22,0,0.41,0.01,0.59,0.01c0.17,0,0.35,0.01,0.53,0.01
		c0.18,0,0.38,0,0.59,0.01c0.21,0,0.47,0,0.77,0c0.3,0,0.55,0,0.77,0c0.21,0,0.41,0,0.59-0.01c0.18,0,0.35-0.01,0.52-0.01
		s0.35-0.01,0.55-0.01c-0.01,0.05-0.02,0.1-0.03,0.15c-0.01,0.05-0.01,0.1-0.01,0.15c0,0.05,0,0.1,0.01,0.15
		c0.01,0.05,0.02,0.1,0.03,0.15c-0.13-0.01-0.27-0.03-0.43-0.04c-0.16-0.01-0.32-0.02-0.47-0.03c-0.16-0.01-0.3-0.01-0.44-0.02
		c-0.14,0-0.26-0.01-0.35-0.01c-0.01,0.02-0.01,0.05-0.01,0.09c0,0.04,0,0.09,0,0.14v0.35v1.65c0,0.37,0.01,0.69,0.02,0.98
		c0.01,0.28,0.03,0.56,0.06,0.84c-0.11-0.01-0.23-0.01-0.35-0.01c-0.13,0-0.27,0-0.43,0c-0.16,0-0.3,0-0.43,0
		c-0.13,0-0.24,0-0.35,0.01c0.03-0.27,0.04-0.55,0.06-0.84c0.01-0.28,0.02-0.61,0.02-0.98v-1.65
		C195.96,79.01,195.96,78.89,195.95,78.79z"/>
	<path class="st5" d="M199.87,79.42c0.17-0.29,0.42-0.54,0.74-0.75c0.32-0.22,0.7-0.39,1.15-0.51c0.45-0.12,0.95-0.19,1.5-0.19
		c0.51,0,0.98,0.05,1.42,0.15c0.44,0.1,0.82,0.24,1.14,0.44c0.32,0.19,0.58,0.44,0.77,0.74c0.19,0.3,0.28,0.65,0.28,1.04
		c0,0.33-0.09,0.64-0.27,0.93c-0.18,0.29-0.43,0.54-0.75,0.75c-0.32,0.21-0.7,0.38-1.15,0.5c-0.44,0.12-0.93,0.18-1.47,0.18
		c-0.5,0-0.97-0.04-1.41-0.13c-0.44-0.09-0.82-0.23-1.15-0.42c-0.33-0.19-0.59-0.44-0.78-0.73s-0.29-0.65-0.29-1.07
		C199.61,80.01,199.7,79.71,199.87,79.42z M205.16,79.42c-0.1-0.23-0.24-0.42-0.42-0.58c-0.18-0.16-0.4-0.28-0.66-0.37
		c-0.26-0.09-0.54-0.13-0.84-0.13c-0.32,0-0.61,0.05-0.87,0.16c-0.26,0.11-0.47,0.25-0.65,0.44c-0.18,0.19-0.31,0.4-0.4,0.65
		c-0.09,0.25-0.14,0.52-0.14,0.8c0,0.35,0.05,0.65,0.16,0.89c0.11,0.24,0.25,0.44,0.44,0.59c0.18,0.15,0.4,0.25,0.64,0.32
		c0.24,0.07,0.49,0.1,0.76,0.1c0.29,0,0.56-0.04,0.82-0.13c0.26-0.08,0.49-0.21,0.68-0.38c0.19-0.17,0.35-0.39,0.47-0.66
		c0.12-0.26,0.18-0.58,0.18-0.94C205.31,79.91,205.26,79.65,205.16,79.42z"/>
	<path class="st5" d="M210.59,78.91c-0.01-0.28-0.03-0.57-0.06-0.86c0.11,0.01,0.22,0.02,0.35,0.02c0.13,0.01,0.27,0.01,0.43,0.01
		c0.22,0,0.45-0.01,0.69-0.02c0.24-0.01,0.47-0.02,0.7-0.02c0.45,0,0.8,0.02,1.06,0.07c0.25,0.05,0.45,0.11,0.6,0.2
		c0.2,0.11,0.35,0.24,0.45,0.38c0.09,0.14,0.14,0.31,0.14,0.51c0,0.25-0.06,0.47-0.18,0.65c-0.12,0.18-0.29,0.33-0.51,0.44
		c-0.22,0.11-0.48,0.2-0.78,0.25c-0.3,0.05-0.63,0.08-0.98,0.08h-0.49c0,0.33,0.01,0.66,0.01,0.99c0.01,0.33,0.03,0.65,0.06,0.98
		c-0.11-0.01-0.23-0.01-0.35-0.01c-0.13,0-0.27,0-0.43,0c-0.16,0-0.3,0-0.43,0c-0.13,0-0.24,0-0.35,0.01
		c0.03-0.27,0.04-0.55,0.06-0.84c0.01-0.28,0.02-0.61,0.02-0.98v-0.9C210.61,79.52,210.6,79.2,210.59,78.91z M213.37,78.9
		c-0.05-0.11-0.13-0.21-0.22-0.27c-0.09-0.07-0.2-0.12-0.32-0.15s-0.25-0.05-0.39-0.05h-0.22c-0.03,0-0.06,0-0.1,0
		c-0.03,0-0.06,0-0.09,0.01c-0.01,0.32-0.01,0.63-0.01,0.94c0,0.31-0.01,0.61-0.01,0.92c0.16,0,0.32-0.01,0.49-0.03
		c0.17-0.02,0.32-0.07,0.46-0.14c0.14-0.07,0.25-0.17,0.34-0.29c0.09-0.13,0.13-0.3,0.13-0.51
		C213.45,79.16,213.42,79.02,213.37,78.9z"/>
	<path class="st5" d="M221.35,82.6c-0.15-0.01-0.3-0.01-0.43-0.01c-0.14,0-0.27,0-0.4,0c-0.13,0-0.27,0-0.4,0
		c-0.14,0-0.27,0-0.4,0.01c-0.1-0.22-0.21-0.44-0.31-0.66c-0.11-0.23-0.22-0.45-0.34-0.68c-0.2,0-0.41-0.01-0.61-0.01
		c-0.2,0-0.41,0-0.61,0c-0.16,0-0.33,0-0.49,0c-0.16,0-0.33,0.01-0.49,0.01c-0.13,0.23-0.24,0.45-0.35,0.68
		c-0.11,0.23-0.21,0.45-0.29,0.66c-0.08-0.01-0.15-0.01-0.22-0.01c-0.07,0-0.15,0-0.22,0c-0.08,0-0.15,0-0.23,0
		c-0.08,0-0.16,0-0.25,0.01c0.08-0.11,0.18-0.27,0.3-0.48c0.13-0.2,0.27-0.43,0.42-0.69c0.15-0.26,0.32-0.53,0.49-0.82
		c0.17-0.29,0.35-0.59,0.52-0.89c0.17-0.3,0.35-0.6,0.51-0.89c0.17-0.29,0.32-0.56,0.46-0.81c0.06,0.01,0.12,0.02,0.18,0.02
		c0.06,0.01,0.12,0.01,0.18,0.01s0.12,0,0.18-0.01c0.06-0.01,0.12-0.01,0.18-0.02c0.2,0.38,0.42,0.78,0.65,1.2
		c0.23,0.43,0.46,0.85,0.7,1.26c0.23,0.41,0.46,0.8,0.68,1.17C220.97,82.04,221.17,82.35,221.35,82.6z M217.98,79.3
		c-0.17,0.26-0.32,0.53-0.47,0.78c-0.15,0.26-0.29,0.52-0.43,0.79h1.74c-0.14-0.27-0.28-0.53-0.41-0.79
		C218.28,79.83,218.14,79.57,217.98,79.3z"/>
	<path class="st5" d="M223.74,80.52v0.27c0,0.37,0.01,0.69,0.02,0.98c0.01,0.28,0.03,0.56,0.06,0.84c-0.11-0.01-0.23-0.01-0.35-0.01
		c-0.13,0-0.27,0-0.43,0c-0.16,0-0.3,0-0.43,0c-0.13,0-0.24,0-0.35,0.01c0.03-0.27,0.04-0.55,0.06-0.84
		c0.01-0.28,0.02-0.61,0.02-0.98v-0.9c0-0.37-0.01-0.69-0.02-0.98c-0.01-0.28-0.03-0.57-0.06-0.86c0.11,0.01,0.23,0.02,0.35,0.02
		c0.13,0.01,0.27,0.01,0.43,0.01c0.17,0,0.37-0.01,0.59-0.02c0.22-0.01,0.49-0.02,0.81-0.02c0.24,0,0.45,0,0.62,0.01
		c0.17,0.01,0.32,0.02,0.44,0.04s0.23,0.04,0.32,0.07c0.09,0.03,0.18,0.06,0.26,0.1c0.19,0.1,0.34,0.22,0.45,0.36
		c0.11,0.14,0.17,0.31,0.17,0.51c0,0.32-0.13,0.58-0.38,0.79c-0.25,0.2-0.62,0.35-1.09,0.43c0.3,0.38,0.63,0.75,0.98,1.12
		c0.35,0.37,0.7,0.74,1.05,1.11c-0.15-0.01-0.29-0.01-0.43-0.01s-0.28,0-0.43,0c-0.15,0-0.29,0-0.43,0s-0.29,0-0.43,0.01l-1.7-2.08
		H223.74z M225.16,78.84c-0.06-0.11-0.14-0.2-0.26-0.26c-0.12-0.06-0.27-0.1-0.46-0.12c-0.19-0.02-0.41-0.03-0.67-0.03
		c-0.02,0.6-0.03,1.2-0.03,1.8c0.04,0,0.07,0.01,0.11,0.01c0.03,0,0.07,0,0.1,0c0.42,0,0.74-0.08,0.96-0.23
		c0.22-0.16,0.33-0.39,0.33-0.71C225.24,79.11,225.22,78.95,225.16,78.84z"/>
	<path class="st5" d="M233.51,82.6c-0.15-0.01-0.3-0.01-0.43-0.01c-0.14,0-0.27,0-0.4,0c-0.13,0-0.27,0-0.4,0
		c-0.14,0-0.27,0-0.4,0.01c-0.1-0.22-0.21-0.44-0.31-0.66c-0.11-0.23-0.22-0.45-0.34-0.68c-0.2,0-0.41-0.01-0.61-0.01
		c-0.2,0-0.41,0-0.61,0c-0.16,0-0.33,0-0.49,0c-0.16,0-0.33,0.01-0.49,0.01c-0.13,0.23-0.24,0.45-0.35,0.68
		c-0.11,0.23-0.21,0.45-0.29,0.66c-0.08-0.01-0.15-0.01-0.22-0.01c-0.07,0-0.15,0-0.22,0c-0.08,0-0.15,0-0.23,0
		c-0.08,0-0.16,0-0.25,0.01c0.08-0.11,0.18-0.27,0.3-0.48c0.13-0.2,0.27-0.43,0.42-0.69c0.15-0.26,0.32-0.53,0.49-0.82
		c0.17-0.29,0.35-0.59,0.52-0.89c0.17-0.3,0.35-0.6,0.51-0.89c0.17-0.29,0.32-0.56,0.46-0.81c0.06,0.01,0.12,0.02,0.18,0.02
		c0.06,0.01,0.12,0.01,0.18,0.01c0.06,0,0.12,0,0.18-0.01c0.06-0.01,0.12-0.01,0.18-0.02c0.2,0.38,0.42,0.78,0.65,1.2
		c0.23,0.43,0.46,0.85,0.7,1.26c0.23,0.41,0.46,0.8,0.68,1.17C233.13,82.04,233.33,82.35,233.51,82.6z M230.14,79.3
		c-0.17,0.26-0.32,0.53-0.47,0.78c-0.15,0.26-0.29,0.52-0.43,0.79h1.74c-0.14-0.27-0.28-0.53-0.41-0.79
		C230.44,79.83,230.3,79.57,230.14,79.3z"/>
	<path class="st5" d="M237.67,81.12c-0.05,0.49-0.1,0.99-0.15,1.48c-0.08-0.01-0.15-0.01-0.23-0.01c-0.08,0-0.15,0-0.22,0
		c-0.08,0-0.15,0-0.22,0c-0.07,0-0.15,0-0.22,0.01c0.2-0.76,0.38-1.51,0.54-2.26c0.16-0.75,0.3-1.51,0.44-2.28
		c0.07,0.01,0.13,0.02,0.2,0.02c0.06,0.01,0.13,0.01,0.2,0.01c0.06,0,0.12,0,0.18-0.01c0.06-0.01,0.13-0.01,0.2-0.02
		c0.17,0.26,0.35,0.53,0.54,0.81s0.37,0.55,0.56,0.82c0.19,0.27,0.37,0.54,0.56,0.8s0.37,0.51,0.54,0.74
		c0.38-0.49,0.76-1.01,1.14-1.55c0.38-0.54,0.74-1.08,1.08-1.61c0.16,0.02,0.29,0.03,0.41,0.03c0.11,0,0.24-0.01,0.4-0.03
		c0.06,0.38,0.13,0.79,0.2,1.22c0.07,0.44,0.14,0.86,0.21,1.28c0.07,0.42,0.14,0.81,0.21,1.17c0.07,0.36,0.13,0.65,0.19,0.87
		c-0.13-0.01-0.26-0.01-0.38-0.01c-0.13,0-0.26,0-0.39,0c-0.13,0-0.26,0-0.39,0c-0.13,0-0.27,0-0.4,0.01
		c-0.03-0.45-0.08-0.95-0.16-1.48c-0.07-0.53-0.15-1.05-0.22-1.58h-0.02c-0.36,0.52-0.72,1.03-1.07,1.54
		c-0.35,0.5-0.69,1.01-1.04,1.52c-0.03,0-0.06-0.01-0.09-0.01c-0.03,0-0.06,0-0.09,0c-0.03,0-0.06,0-0.09,0
		c-0.03,0-0.06,0.01-0.09,0.01c-0.34-0.49-0.68-0.99-1.02-1.48c-0.34-0.49-0.69-0.99-1.05-1.5h-0.02
		C237.8,80.13,237.72,80.63,237.67,81.12z"/>
	<path class="st5" d="M250.96,82.6c-0.15-0.01-0.3-0.01-0.43-0.01s-0.27,0-0.4,0c-0.13,0-0.27,0-0.4,0c-0.14,0-0.27,0-0.4,0.01
		c-0.1-0.22-0.21-0.44-0.31-0.66s-0.22-0.45-0.34-0.68c-0.2,0-0.41-0.01-0.61-0.01c-0.2,0-0.41,0-0.61,0c-0.16,0-0.33,0-0.49,0
		c-0.16,0-0.33,0.01-0.49,0.01c-0.13,0.23-0.24,0.45-0.35,0.68c-0.11,0.23-0.21,0.45-0.29,0.66c-0.08-0.01-0.15-0.01-0.22-0.01
		c-0.07,0-0.15,0-0.22,0c-0.08,0-0.15,0-0.23,0c-0.08,0-0.16,0-0.25,0.01c0.08-0.11,0.18-0.27,0.3-0.48
		c0.13-0.2,0.27-0.43,0.42-0.69c0.15-0.26,0.32-0.53,0.49-0.82c0.17-0.29,0.35-0.59,0.52-0.89c0.17-0.3,0.35-0.6,0.51-0.89
		c0.17-0.29,0.32-0.56,0.46-0.81c0.06,0.01,0.12,0.02,0.18,0.02c0.06,0.01,0.12,0.01,0.18,0.01c0.06,0,0.12,0,0.18-0.01
		c0.06-0.01,0.12-0.01,0.18-0.02c0.2,0.38,0.42,0.78,0.65,1.2c0.23,0.43,0.46,0.85,0.7,1.26c0.23,0.41,0.46,0.8,0.68,1.17
		C250.58,82.04,250.78,82.35,250.96,82.6z M247.59,79.3c-0.17,0.26-0.32,0.53-0.47,0.78c-0.15,0.26-0.29,0.52-0.43,0.79h1.74
		c-0.14-0.27-0.28-0.53-0.41-0.79C247.89,79.83,247.75,79.57,247.59,79.3z"/>
	<path class="st5" d="M253.6,78.38c-0.29,0-0.53,0.06-0.71,0.18c-0.18,0.12-0.28,0.26-0.28,0.42c0,0.16,0.07,0.3,0.21,0.4
		c0.14,0.1,0.32,0.2,0.54,0.28c0.22,0.08,0.45,0.16,0.69,0.24c0.25,0.08,0.48,0.17,0.69,0.28c0.22,0.11,0.39,0.25,0.54,0.41
		c0.14,0.16,0.21,0.37,0.21,0.62c0,0.22-0.06,0.42-0.18,0.61c-0.12,0.18-0.29,0.34-0.51,0.47s-0.49,0.23-0.79,0.3
		c-0.31,0.07-0.65,0.1-1.03,0.1c-0.34,0-0.65-0.03-0.92-0.08c-0.27-0.05-0.47-0.11-0.61-0.19c0.06-0.15,0.12-0.3,0.16-0.42
		c0.04-0.13,0.08-0.27,0.11-0.42h0.18c0.03,0.1,0.07,0.19,0.14,0.27c0.07,0.09,0.16,0.16,0.27,0.23c0.11,0.07,0.24,0.12,0.39,0.16
		c0.15,0.04,0.32,0.06,0.51,0.06c0.38,0,0.66-0.07,0.84-0.2c0.18-0.13,0.27-0.29,0.27-0.48c0-0.17-0.07-0.3-0.21-0.41
		c-0.14-0.11-0.31-0.2-0.52-0.28c-0.21-0.08-0.44-0.16-0.68-0.24c-0.25-0.08-0.48-0.17-0.69-0.28c-0.21-0.11-0.38-0.25-0.52-0.41
		c-0.14-0.16-0.21-0.37-0.21-0.62c0-0.23,0.06-0.43,0.18-0.61c0.12-0.18,0.27-0.32,0.47-0.44c0.2-0.12,0.42-0.21,0.68-0.27
		c0.26-0.06,0.53-0.09,0.81-0.09c0.34,0,0.64,0.03,0.9,0.09c0.26,0.06,0.48,0.14,0.66,0.24c-0.06,0.1-0.11,0.2-0.15,0.29
		c-0.04,0.09-0.09,0.22-0.16,0.36h-0.14C254.55,78.57,254.16,78.38,253.6,78.38z"/>
	<path class="st5" d="M261.71,82.14c-0.04,0.09-0.06,0.19-0.08,0.28c-0.51,0.18-1.16,0.27-1.94,0.27c-0.55,0-1.05-0.05-1.48-0.16
		c-0.43-0.11-0.8-0.26-1.1-0.46c-0.3-0.2-0.53-0.43-0.69-0.7s-0.24-0.56-0.24-0.87c0-0.46,0.1-0.85,0.31-1.17
		c0.21-0.32,0.48-0.58,0.83-0.78c0.35-0.2,0.75-0.35,1.2-0.44s0.94-0.14,1.44-0.14c0.16,0,0.34,0.01,0.52,0.03
		c0.18,0.02,0.36,0.04,0.53,0.07c0.17,0.03,0.33,0.06,0.49,0.1c0.16,0.04,0.29,0.08,0.39,0.13c-0.06,0.11-0.11,0.22-0.15,0.33
		c-0.03,0.11-0.06,0.23-0.07,0.34h-0.13c-0.24-0.21-0.49-0.36-0.74-0.45c-0.25-0.09-0.55-0.14-0.89-0.14
		c-0.25,0-0.51,0.04-0.77,0.12c-0.26,0.08-0.49,0.2-0.7,0.36c-0.21,0.16-0.38,0.37-0.51,0.63c-0.13,0.25-0.2,0.56-0.2,0.91
		c0,0.34,0.07,0.63,0.2,0.87c0.13,0.24,0.31,0.44,0.52,0.59c0.21,0.15,0.45,0.26,0.72,0.33c0.27,0.07,0.54,0.11,0.81,0.11
		c0.15,0,0.31-0.01,0.47-0.04c0.16-0.02,0.31-0.06,0.47-0.1c0.15-0.04,0.3-0.09,0.43-0.16c0.14-0.06,0.26-0.13,0.36-0.21l0.12,0.05
		C261.8,81.95,261.75,82.04,261.71,82.14z"/>
	<path class="st5" d="M262.79,79.42c0.17-0.29,0.42-0.54,0.74-0.75c0.32-0.22,0.7-0.39,1.15-0.51c0.45-0.12,0.95-0.19,1.5-0.19
		c0.51,0,0.98,0.05,1.42,0.15c0.44,0.1,0.82,0.24,1.14,0.44c0.32,0.19,0.58,0.44,0.77,0.74c0.19,0.3,0.28,0.65,0.28,1.04
		c0,0.33-0.09,0.64-0.27,0.93c-0.18,0.29-0.43,0.54-0.75,0.75c-0.32,0.21-0.7,0.38-1.15,0.5c-0.44,0.12-0.93,0.18-1.47,0.18
		c-0.5,0-0.97-0.04-1.41-0.13c-0.44-0.09-0.82-0.23-1.15-0.42c-0.33-0.19-0.59-0.44-0.78-0.73s-0.29-0.65-0.29-1.07
		C262.53,80.01,262.62,79.71,262.79,79.42z M268.08,79.42c-0.1-0.23-0.24-0.42-0.42-0.58c-0.18-0.16-0.4-0.28-0.66-0.37
		c-0.26-0.09-0.54-0.13-0.84-0.13c-0.32,0-0.61,0.05-0.87,0.16c-0.26,0.11-0.47,0.25-0.65,0.44c-0.18,0.19-0.31,0.4-0.4,0.65
		c-0.09,0.25-0.14,0.52-0.14,0.8c0,0.35,0.05,0.65,0.16,0.89c0.11,0.24,0.25,0.44,0.44,0.59c0.18,0.15,0.4,0.25,0.64,0.32
		c0.24,0.07,0.49,0.1,0.76,0.1c0.29,0,0.56-0.04,0.82-0.13c0.26-0.08,0.49-0.21,0.68-0.38c0.19-0.17,0.35-0.39,0.47-0.66
		c0.12-0.26,0.18-0.58,0.18-0.94C268.23,79.91,268.18,79.65,268.08,79.42z"/>
	<path class="st5" d="M272.09,78.79c0-0.11-0.01-0.18-0.02-0.23c-0.1,0-0.21,0-0.35,0.01c-0.14,0-0.29,0.01-0.45,0.02
		c-0.16,0.01-0.32,0.02-0.49,0.03c-0.16,0.01-0.32,0.02-0.46,0.04c0.01-0.05,0.02-0.1,0.03-0.15c0.01-0.05,0.01-0.1,0.01-0.15
		c0-0.05,0-0.1-0.01-0.15c-0.01-0.05-0.02-0.1-0.03-0.15c0.22,0,0.41,0.01,0.59,0.01c0.17,0,0.35,0.01,0.53,0.01
		c0.18,0,0.38,0,0.59,0.01c0.21,0,0.47,0,0.77,0c0.3,0,0.55,0,0.77,0c0.21,0,0.41,0,0.59-0.01c0.18,0,0.35-0.01,0.52-0.01
		s0.35-0.01,0.55-0.01c-0.01,0.05-0.02,0.1-0.03,0.15c-0.01,0.05-0.01,0.1-0.01,0.15c0,0.05,0,0.1,0.01,0.15
		c0.01,0.05,0.02,0.1,0.03,0.15c-0.13-0.01-0.27-0.03-0.43-0.04c-0.16-0.01-0.32-0.02-0.47-0.03c-0.16-0.01-0.3-0.01-0.44-0.02
		c-0.14,0-0.26-0.01-0.35-0.01c-0.01,0.02-0.01,0.05-0.01,0.09c0,0.04,0,0.09,0,0.14v0.35v1.65c0,0.37,0.01,0.69,0.02,0.98
		c0.01,0.28,0.03,0.56,0.06,0.84c-0.11-0.01-0.23-0.01-0.35-0.01c-0.13,0-0.27,0-0.43,0c-0.16,0-0.3,0-0.43,0
		c-0.13,0-0.24,0-0.35,0.01c0.03-0.27,0.04-0.55,0.06-0.84c0.01-0.28,0.02-0.61,0.02-0.98v-1.65
		C272.09,79.01,272.09,78.89,272.09,78.79z"/>
	<path class="st5" d="M281.63,82.6c-0.15-0.01-0.3-0.01-0.43-0.01c-0.14,0-0.27,0-0.4,0c-0.13,0-0.27,0-0.4,0
		c-0.14,0-0.27,0-0.4,0.01c-0.1-0.22-0.21-0.44-0.31-0.66c-0.11-0.23-0.22-0.45-0.34-0.68c-0.2,0-0.41-0.01-0.61-0.01
		c-0.2,0-0.41,0-0.61,0c-0.16,0-0.33,0-0.49,0c-0.16,0-0.33,0.01-0.49,0.01c-0.13,0.23-0.24,0.45-0.35,0.68
		c-0.11,0.23-0.21,0.45-0.29,0.66c-0.08-0.01-0.15-0.01-0.22-0.01c-0.07,0-0.15,0-0.22,0c-0.08,0-0.15,0-0.23,0
		c-0.08,0-0.16,0-0.25,0.01c0.08-0.11,0.18-0.27,0.3-0.48c0.13-0.2,0.27-0.43,0.42-0.69c0.15-0.26,0.32-0.53,0.49-0.82
		c0.17-0.29,0.35-0.59,0.52-0.89c0.17-0.3,0.35-0.6,0.51-0.89c0.17-0.29,0.32-0.56,0.46-0.81c0.06,0.01,0.12,0.02,0.18,0.02
		c0.06,0.01,0.12,0.01,0.18,0.01c0.06,0,0.12,0,0.18-0.01c0.06-0.01,0.12-0.01,0.18-0.02c0.2,0.38,0.42,0.78,0.65,1.2
		c0.23,0.43,0.46,0.85,0.7,1.26c0.23,0.41,0.46,0.8,0.68,1.17C281.24,82.04,281.44,82.35,281.63,82.6z M278.26,79.3
		c-0.17,0.26-0.32,0.53-0.47,0.78c-0.15,0.26-0.29,0.52-0.43,0.79h1.74c-0.14-0.27-0.28-0.53-0.41-0.79
		C278.56,79.83,278.41,79.57,278.26,79.3z"/>
	<path class="st5" d="M284.26,78.38c-0.29,0-0.53,0.06-0.71,0.18c-0.18,0.12-0.28,0.26-0.28,0.42c0,0.16,0.07,0.3,0.21,0.4
		c0.14,0.1,0.32,0.2,0.54,0.28c0.22,0.08,0.45,0.16,0.69,0.24c0.25,0.08,0.48,0.17,0.69,0.28c0.22,0.11,0.39,0.25,0.54,0.41
		c0.14,0.16,0.21,0.37,0.21,0.62c0,0.22-0.06,0.42-0.18,0.61c-0.12,0.18-0.29,0.34-0.51,0.47s-0.49,0.23-0.79,0.3
		c-0.31,0.07-0.65,0.1-1.03,0.1c-0.34,0-0.65-0.03-0.92-0.08c-0.27-0.05-0.47-0.11-0.61-0.19c0.06-0.15,0.12-0.3,0.16-0.42
		c0.04-0.13,0.08-0.27,0.11-0.42h0.18c0.03,0.1,0.07,0.19,0.14,0.27c0.07,0.09,0.16,0.16,0.27,0.23c0.11,0.07,0.24,0.12,0.39,0.16
		c0.15,0.04,0.32,0.06,0.51,0.06c0.38,0,0.66-0.07,0.84-0.2c0.18-0.13,0.27-0.29,0.27-0.48c0-0.17-0.07-0.3-0.21-0.41
		c-0.14-0.11-0.31-0.2-0.52-0.28c-0.21-0.08-0.44-0.16-0.68-0.24c-0.25-0.08-0.48-0.17-0.69-0.28c-0.21-0.11-0.38-0.25-0.52-0.41
		c-0.14-0.16-0.21-0.37-0.21-0.62c0-0.23,0.06-0.43,0.18-0.61c0.12-0.18,0.27-0.32,0.47-0.44c0.2-0.12,0.42-0.21,0.68-0.27
		c0.26-0.06,0.53-0.09,0.81-0.09c0.34,0,0.64,0.03,0.9,0.09c0.26,0.06,0.48,0.14,0.66,0.24c-0.06,0.1-0.11,0.2-0.15,0.29
		c-0.04,0.09-0.09,0.22-0.16,0.36h-0.14C285.21,78.57,284.83,78.38,284.26,78.38z"/>
</g>
<g>
	<defs>
		<path id="SVGID_6_" d="M209.23,83.41L209.23,83.41c0.01-0.04,0.02-0.09,0.03-0.13v-0.01v0C209.25,83.32,209.24,83.36,209.23,83.41
			"/>
	</defs>
	<clipPath id="SVGID_7_">
		<use xlink:href="#SVGID_6_"  style="overflow:visible;"/>
	</clipPath>
	
		<linearGradient id="SVGID_8_" gradientUnits="userSpaceOnUse" x1="-236.4713" y1="352.9901" x2="-236.0027" y2="352.9901" gradientTransform="matrix(4.9471 -27.6807 -4.8598 -26.5737 3114.7249 2805.0103)">
		<stop  offset="0" style="stop-color:#798D21"/>
		<stop  offset="1" style="stop-color:#CDD513"/>
	</linearGradient>
	<polygon class="st6" points="209.21,83.34 209.24,83.2 209.27,83.34 209.24,83.49 	"/>
</g>
<g>
	<defs>
		<path id="SVGID_9_" d="M22.79,28.02c-1.94,0.02-3.85,0.26-5.72,0.72c-2.27,0.56-4.3,1.45-6.07,2.66
			c-1.77,1.22-3.21,2.76-4.32,4.62c-1.11,1.86-1.72,4.06-1.82,6.58c-0.11,2.61,0.37,4.73,1.43,6.36c1.06,1.63,2.42,2.97,4.08,4.01
			c1.66,1.03,3.46,1.88,5.41,2.53c1.95,0.65,3.77,1.29,5.44,1.93c1.67,0.64,3.06,1.38,4.15,2.25c1.09,0.86,1.61,2,1.55,3.41
			c-0.04,0.84-0.28,1.56-0.74,2.17c-0.46,0.6-1.05,1.09-1.78,1.46c-0.73,0.37-1.54,0.64-2.45,0.81c-0.9,0.16-1.79,0.23-2.66,0.2
			c-1.79-0.07-3.5-0.52-5.15-1.35c-1.64-0.84-2.99-1.98-4.04-3.44l-7.96,7.81v0c2.26,2.17,4.72,3.76,7.39,4.79
			c2.67,1.03,5.59,1.6,8.75,1.72c2.52,0.1,4.93-0.13,7.23-0.66c2.3-0.54,4.33-1.41,6.1-2.63c1.78-1.22,3.2-2.78,4.29-4.69
			c1.09-1.91,1.68-4.17,1.78-6.78c0.11-2.74-0.35-4.95-1.39-6.63c-1.04-1.68-2.38-3.03-4.01-4.07c-1.63-1.04-3.4-1.86-5.31-2.46
			c-1.91-0.6-3.69-1.2-5.34-1.79c-1.65-0.59-3.01-1.28-4.08-2.08c-1.08-0.79-1.58-1.9-1.52-3.31c0.04-0.88,0.29-1.63,0.78-2.23
			c0.48-0.6,1.1-1.08,1.85-1.43c0.75-0.35,1.54-0.6,2.37-0.74c0.84-0.15,1.64-0.2,2.42-0.18c1.33,0.05,2.73,0.36,4.2,0.92
			c1.47,0.56,2.62,1.39,3.45,2.48l7.67-7.49c-1.99-1.85-4.26-3.19-6.8-4.04c-2.54-0.85-5.19-1.32-7.94-1.42
			c-0.25-0.01-0.49-0.02-0.73-0.02H22.79z"/>
	</defs>
	<clipPath id="SVGID_10_">
		<use xlink:href="#SVGID_9_"  style="overflow:visible;"/>
	</clipPath>
	
		<linearGradient id="SVGID_11_" gradientUnits="userSpaceOnUse" x1="-220.8513" y1="343.5586" x2="-220.3769" y2="343.5586" gradientTransform="matrix(77.2689 -0.0394 -0.0374 -73.1861 17079.9414 25187.7109)">
		<stop  offset="0" style="stop-color:#FFFFFF"/>
		<stop  offset="1" style="stop-color:#EBEBEC"/>
	</linearGradient>
	<rect x="2.15" y="28.01" class="st7" width="36.66" height="49.36"/>
</g>
<g>
	<defs>
		<path id="SVGID_12_" d="M22.02,67.78c0.93-0.17,1.77-0.45,2.52-0.83c0.76-0.39,1.38-0.9,1.87-1.54c0.5-0.65,0.76-1.42,0.79-2.3
			c0.01-0.08,0.01-0.15,0.01-0.22c0-1.38-0.56-2.55-1.65-3.4c-1.12-0.88-2.53-1.64-4.22-2.29c-1.68-0.64-3.5-1.28-5.45-1.93
			c-1.93-0.64-3.71-1.48-5.35-2.5c-1.63-1.02-2.96-2.32-4-3.93c-0.93-1.43-1.41-3.27-1.41-5.53c0-0.22,0.01-0.45,0.02-0.69
			c0.09-2.49,0.69-4.64,1.78-6.46c1.09-1.83,2.5-3.34,4.24-4.54c1.75-1.2,3.73-2.07,5.98-2.62c1.94-0.48,3.91-0.71,5.94-0.72
			c0.32,0,0.65,0.01,0.98,0.02c2.73,0.1,5.34,0.57,7.86,1.41c2.42,0.81,4.58,2.07,6.5,3.8l-7.27,7.1c-0.85-1.02-1.98-1.8-3.38-2.34
			c-1.5-0.57-2.92-0.89-4.29-0.94c-0.13,0-0.27-0.01-0.4-0.01c-0.68,0-1.37,0.06-2.08,0.19h0c-0.85,0.15-1.67,0.41-2.44,0.77
			c-0.78,0.36-1.43,0.86-1.94,1.5c-0.52,0.65-0.79,1.45-0.83,2.38c-0.01,0.08-0.01,0.15-0.01,0.22c-0.01,1.38,0.55,2.51,1.63,3.3
			c1.1,0.81,2.49,1.52,4.16,2.12c1.66,0.59,3.44,1.19,5.35,1.79c1.88,0.59,3.63,1.41,5.25,2.43c1.6,1.01,2.91,2.34,3.93,3.98
			c0.9,1.47,1.36,3.37,1.36,5.72c0,0.25-0.01,0.51-0.01,0.77c-0.1,2.58-0.69,4.8-1.76,6.66c-1.07,1.88-2.47,3.41-4.21,4.61
			c-1.74,1.2-3.74,2.06-6.01,2.59c-1.93,0.45-3.94,0.67-6.03,0.67c-0.37,0-0.74-0.01-1.12-0.02c-3.14-0.12-6.03-0.68-8.66-1.7
			c-2.57-0.98-4.93-2.5-7.12-4.55l7.55-7.41c1.04,1.37,2.36,2.46,3.95,3.27c1.68,0.86,3.43,1.32,5.26,1.38
			c0.14,0,0.29,0.01,0.44,0.01C20.49,67.99,21.25,67.92,22.02,67.78 M17,28.49c-2.3,0.56-4.36,1.47-6.16,2.71
			c-1.8,1.24-3.27,2.81-4.39,4.7c-1.14,1.9-1.75,4.14-1.85,6.7c-0.01,0.24-0.02,0.47-0.02,0.71c0,2.33,0.49,4.27,1.49,5.81
			c1.08,1.67,2.47,3.03,4.16,4.08c1.68,1.05,3.5,1.9,5.47,2.55c1.95,0.65,3.76,1.29,5.43,1.92c1.66,0.63,3.01,1.37,4.08,2.21
			c0.98,0.78,1.45,1.76,1.46,3.01c0,0.07,0,0.13-0.01,0.2c-0.03,0.8-0.26,1.46-0.69,2.02c-0.44,0.57-1,1.03-1.69,1.39
			c-0.7,0.36-1.49,0.62-2.37,0.78c-0.74,0.14-1.47,0.21-2.19,0.21c-0.14,0-0.28,0-0.41-0.01c-1.75-0.06-3.43-0.5-5.04-1.32
			c-1.61-0.82-2.92-1.93-3.94-3.36l-0.18-0.26l-8.37,8.22l0.19,0.18c2.27,2.19,4.77,3.81,7.48,4.85c2.7,1.04,5.65,1.62,8.84,1.74
			c0.39,0.02,0.77,0.02,1.15,0.02c2.13,0,4.19-0.23,6.16-0.69c2.33-0.54,4.39-1.43,6.2-2.67c1.8-1.24,3.26-2.84,4.37-4.78
			c1.11-1.95,1.71-4.25,1.82-6.89c0.01-0.27,0.01-0.53,0.01-0.79c0-2.42-0.47-4.41-1.44-5.98c-1.05-1.71-2.42-3.1-4.09-4.15
			c-1.66-1.05-3.45-1.88-5.38-2.48c-1.9-0.6-3.68-1.2-5.33-1.79c-1.63-0.59-2.98-1.27-4.01-2.04c-0.96-0.71-1.42-1.64-1.42-2.89
			v-0.2c0.04-0.84,0.28-1.53,0.73-2.09c0.45-0.57,1.04-1.02,1.75-1.35c0.73-0.34,1.5-0.58,2.31-0.72c0.68-0.12,1.34-0.18,1.98-0.18
			c0.13,0,0.25,0.01,0.38,0.01c1.29,0.05,2.66,0.35,4.11,0.9c1.43,0.55,2.53,1.35,3.34,2.4l0.18,0.24l8.08-7.89l-0.19-0.18
			c-2.02-1.87-4.33-3.24-6.9-4.1c-2.56-0.85-5.23-1.33-8.01-1.43c-0.34-0.01-0.67-0.02-1-0.02C21.01,27.76,18.99,28.01,17,28.49"/>
	</defs>
	<clipPath id="SVGID_13_">
		<use xlink:href="#SVGID_12_"  style="overflow:visible;"/>
	</clipPath>
	
		<linearGradient id="SVGID_14_" gradientUnits="userSpaceOnUse" x1="-220.9111" y1="343.5663" x2="-220.4367" y2="343.5663" gradientTransform="matrix(80.435 -0.0411 -0.0389 -76.1848 17783.7754 26218.1133)">
		<stop  offset="0" style="stop-color:#004595"/>
		<stop  offset="1" style="stop-color:#003A75"/>
	</linearGradient>
	<rect x="1.78" y="27.75" class="st8" width="37.41" height="49.79"/>
</g>
<g>
	<defs>
		<path id="SVGID_15_" d="M104.46,26.48c-3.78,0.01-7.26,0.59-10.45,1.73c-3.21,1.15-5.99,2.8-8.33,4.95
			c-2.34,2.15-4.16,4.75-5.47,7.81c-1.31,3.05-1.96,6.46-1.95,10.22c0,3.77,0.66,7.17,1.97,10.23c1.31,3.05,3.14,5.65,5.48,7.8
			c2.34,2.14,5.13,3.79,8.34,4.94c3.22,1.15,6.73,1.72,10.54,1.72c3.58,0,7.1-0.36,10.54-1.07c3.44-0.71,6.75-1.86,9.92-3.46
			l-0.01-21.87l0-2.7l-19.07,0.01l0,9.56l8.75-0.01l0.01,7.64c-1.01,0.53-2.36,1.05-4.07,1.56c-1.7,0.51-3.72,0.77-6.06,0.77
			c-2.3,0-4.37-0.38-6.23-1.12c-1.86-0.75-3.46-1.8-4.79-3.15c-1.33-1.35-2.36-2.94-3.07-4.78c-0.71-1.84-1.07-3.86-1.07-6.08
			c0-2.17,0.35-4.18,1.06-6.04c0.71-1.86,1.73-3.46,3.06-4.82c1.33-1.35,2.92-2.4,4.78-3.16c1.86-0.75,3.93-1.13,6.23-1.13
			c2.76,0,5.05,0.37,6.89,1.13c1.84,0.75,3.49,1.86,4.96,3.32l7.57-7.97c-2.48-2.21-5.36-3.77-8.64-4.68
			c-3.27-0.9-6.85-1.35-10.74-1.36H104.46z"/>
	</defs>
	<clipPath id="SVGID_16_">
		<use xlink:href="#SVGID_15_"  style="overflow:visible;"/>
	</clipPath>
	
		<linearGradient id="SVGID_17_" gradientUnits="userSpaceOnUse" x1="-222.1078" y1="343.6186" x2="-221.6334" y2="343.6186" gradientTransform="matrix(98.6531 -0.0503 -0.0478 -93.44 22006.2813 32147.7461)">
		<stop  offset="0" style="stop-color:#FFFFFF"/>
		<stop  offset="1" style="stop-color:#EBEBEC"/>
	</linearGradient>
	<rect x="78.24" y="26.47" class="st9" width="46.8" height="49.43"/>
</g>
<g>
	<defs>
		<path id="SVGID_18_" d="M94.13,74.4c-3.18-1.14-5.93-2.77-8.25-4.89c-2.32-2.12-4.12-4.69-5.41-7.71
			c-1.3-3.02-1.95-6.39-1.95-10.13c0-3.73,0.64-7.11,1.94-10.13c1.29-3.03,3.09-5.59,5.41-7.72c2.31-2.12,5.06-3.76,8.24-4.9
			c3.18-1.14,6.66-1.71,10.44-1.72c3.88,0,7.45,0.45,10.71,1.35c3.16,0.87,5.93,2.35,8.34,4.45l-7.2,7.58
			c-1.44-1.39-3.06-2.45-4.85-3.18c-1.88-0.77-4.21-1.15-6.99-1.15c-2.33,0-4.44,0.39-6.33,1.15c-1.89,0.77-3.52,1.84-4.88,3.22
			c-1.36,1.38-2.4,3.01-3.12,4.9c-0.72,1.89-1.09,3.94-1.08,6.13c0,2.24,0.36,4.3,1.08,6.17c0.73,1.87,1.77,3.49,3.13,4.86
			c1.36,1.38,2.99,2.45,4.88,3.21c1.9,0.77,4.01,1.15,6.34,1.14c2.36,0,4.41-0.26,6.14-0.78c1.7-0.51,3.08-1.04,4.11-1.58l0.14-0.07
			l0-8.04l-8.75,0.01l0-9.05l18.55-0.01l0.01,24.15c-3.1,1.55-6.34,2.67-9.71,3.36c-3.43,0.7-6.92,1.06-10.48,1.06h-0.03
			C100.77,76.1,97.3,75.53,94.13,74.4 M104.55,26.7c-3.84,0-7.39,0.58-10.63,1.75c-3.25,1.16-6.05,2.83-8.42,5
			c-2.37,2.18-4.22,4.81-5.54,7.89c-1.32,3.09-1.98,6.53-1.98,10.33c0.01,3.79,0.66,7.23,1.99,10.32c1.32,3.08,3.17,5.72,5.54,7.89
			c2.37,2.17,5.18,3.84,8.43,5c3.25,1.16,6.79,1.74,10.63,1.74c3.6,0,7.13-0.36,10.59-1.08c3.47-0.71,6.8-1.88,9.98-3.48l-0.12-0.23
			l0.12,0.23l0.14-0.07l-0.01-24.98l-19.61,0.01l0.01,10.07l8.74,0l0.01,7.22c-0.97,0.5-2.26,0.99-3.88,1.47
			c-1.66,0.5-3.66,0.76-5.98,0.76c-2.27,0-4.31-0.37-6.13-1.1c-1.83-0.74-3.39-1.77-4.7-3.09c-1.31-1.32-2.31-2.89-3.01-4.69
			c-0.7-1.81-1.05-3.8-1.05-5.99c0-2.14,0.35-4.13,1.05-5.96c0.7-1.83,1.7-3.4,3.01-4.73c1.3-1.32,2.87-2.36,4.7-3.1
			c1.82-0.74,3.86-1.11,6.13-1.11c2.73,0,4.99,0.37,6.79,1.1c1.8,0.74,3.42,1.82,4.87,3.26l0.2,0.19l7.94-8.36l-0.19-0.17
			c-2.51-2.24-5.43-3.82-8.75-4.74c-3.31-0.91-6.92-1.37-10.83-1.37H104.55z"/>
	</defs>
	<clipPath id="SVGID_19_">
		<use xlink:href="#SVGID_18_"  style="overflow:visible;"/>
	</clipPath>
	
		<linearGradient id="SVGID_20_" gradientUnits="userSpaceOnUse" x1="-222.1172" y1="343.6177" x2="-221.6428" y2="343.6177" gradientTransform="matrix(100.8035 -0.0516 -0.0488 -95.4769 22484.7695 32847.7656)">
		<stop  offset="0" style="stop-color:#004595"/>
		<stop  offset="1" style="stop-color:#003A75"/>
	</linearGradient>
	<rect x="77.97" y="26.69" class="st10" width="47.33" height="49.94"/>
</g>
<g>
	<defs>
		<path id="SVGID_21_" d="M152.66,50.69c-3.92-1.45,4.15-9.74,3.91-16.57c0.8,6.17-2.16,16.59-3.78,16.59
			C152.75,50.71,152.71,50.71,152.66,50.69 M146.18,20.04c-3.46,0-7.45,3.1-10.44,7.62l-5.13,0l0.02,29.09
			c0.02,2.71,0.46,5.21,1.31,7.5c0.87,2.35,2.17,4.38,3.89,6.11c1.73,1.73,3.87,3.08,6.44,4.05c2.57,0.97,5.56,1.46,8.96,1.46
			c3.35,0,6.31-0.49,8.88-1.47c2.57-0.97,4.72-2.33,6.44-4.05c1.72-1.73,3.02-3.76,3.89-6.11c0.82-2.21,1.26-4.62,1.3-7.23
			l-0.01-22.96l0-6.39l-10.74,0.01v0.07c-1.55-0.15-5.07,0.14-5.97,1.3c-1.13-1.84-2.53-3.02-2.93-4.03
			C150.69,21.51,148.57,20.04,146.18,20.04L146.18,20.04z"/>
	</defs>
	<clipPath id="SVGID_22_">
		<use xlink:href="#SVGID_21_"  style="overflow:visible;"/>
	</clipPath>
	
		<linearGradient id="SVGID_23_" gradientUnits="userSpaceOnUse" x1="-222.6879" y1="343.5357" x2="-222.2135" y2="343.5357" gradientTransform="matrix(86.7607 -0.0443 -0.0421 -82.1761 19465.6191 28268.5176)">
		<stop  offset="0" style="stop-color:#FFFFFF"/>
		<stop  offset="1" style="stop-color:#EBEBEC"/>
	</linearGradient>
	<rect x="130.6" y="20.03" class="st11" width="41.16" height="55.84"/>
</g>
<g>
	<defs>
		<path id="SVGID_24_" d="M152.79,50.93l-0.04-0.01c-0.67-0.26-0.89-0.65-0.9-1.34c-0.03-2.32,3.36-7.02,4.57-11.69
			c-0.11,2.8-0.68,5.9-1.39,8.38c-0.71,2.73-1.85,4.66-2.22,4.66C152.81,50.94,152.8,50.93,152.79,50.93 M156.3,34.61
			c0,0.1,0,0.2,0,0.3c0.03,5.31-4.94,11.49-4.99,14.68c-0.01,0.81,0.39,1.51,1.25,1.81c0.07,0.03,0.15,0.04,0.22,0.04
			c1.93-0.27,4.07-8.32,4.18-14.57c0-0.81-0.04-1.59-0.14-2.32L156.3,34.61z M161.25,28.12H161H161.25z M142.37,74.64
			c-2.54-0.96-4.65-2.29-6.35-3.99c-1.69-1.7-2.97-3.7-3.83-6.02c-0.86-2.31-1.3-4.85-1.29-7.61l-0.02-28.63l5.01,0l0.08-0.12
			c2.97-4.48,6.93-7.52,10.22-7.5c2.25,0.01,4.27,1.35,5.65,4.78c0.46,1.12,1.85,2.26,2.95,4.07l0.21,0.33l0.24-0.3
			c0.59-0.82,3.21-1.26,4.9-1.24c0.32,0,0.61,0.01,0.84,0.04l0.29,0.03v-0.09l10.21-0.01L171.48,57c0,2.76-0.43,5.3-1.29,7.61
			c-0.86,2.32-2.13,4.32-3.83,6.02c-1.69,1.7-3.8,3.03-6.34,3.99c-2.53,0.96-5.46,1.44-8.79,1.45h-0.02
			C147.84,76.08,144.9,75.59,142.37,74.64 M146.2,20.26h-0.02c-3.6,0.02-7.57,3.13-10.59,7.62l-5.25,0l0.02,29.14
			c0,2.81,0.44,5.41,1.33,7.79c0.88,2.38,2.21,4.45,3.95,6.2c1.75,1.75,3.93,3.12,6.54,4.11c2.6,0.99,5.63,1.48,9.05,1.48
			c3.38,0,6.37-0.49,8.98-1.48c2.6-0.99,4.78-2.36,6.54-4.12c1.74-1.75,3.06-3.82,3.95-6.2c0.88-2.38,1.32-4.97,1.32-7.79L172,27.86
			l-11.01,0.01h-0.27v0.04c-0.18-0.01-0.38-0.01-0.59-0.01c-1.63,0.02-3.96,0.27-5.06,1.18c-1.12-1.71-2.41-2.85-2.73-3.71
			C150.94,21.84,148.7,20.26,146.2,20.26C146.2,20.26,146.2,20.26,146.2,20.26"/>
	</defs>
	<clipPath id="SVGID_25_">
		<use xlink:href="#SVGID_24_"  style="overflow:visible;"/>
	</clipPath>
	
		<linearGradient id="SVGID_26_" gradientUnits="userSpaceOnUse" x1="-222.6951" y1="343.5416" x2="-222.2207" y2="343.5416" gradientTransform="matrix(88.8947 -0.0453 -0.0429 -84.1974 19941.2559 28963.6582)">
		<stop  offset="0" style="stop-color:#004595"/>
		<stop  offset="1" style="stop-color:#003A75"/>
	</linearGradient>
	<rect x="130.33" y="20.25" class="st12" width="41.7" height="56.35"/>
</g>
<g>
	<defs>
		<path id="SVGID_27_" d="M186.86,37l7.02-0.01c0.96,0,1.95,0.07,2.96,0.2c1.01,0.13,1.91,0.39,2.69,0.76
			c0.78,0.37,1.42,0.92,1.93,1.63c0.51,0.71,0.76,1.66,0.76,2.85c0,1.28-0.29,2.28-0.86,2.99c-0.57,0.71-1.3,1.23-2.17,1.56
			c-0.87,0.34-1.85,0.53-2.93,0.6c-1.08,0.07-2.1,0.1-3.06,0.1l-6.34,0L186.86,37z M176.11,28.24l0.03,47.01l10.75-0.01l-0.01-18.79
			l5.3,0l10.2,18.78l12.88,0l-12.41-19.85c3.44-0.62,6.06-2.1,7.85-4.42c1.79-2.33,2.69-5.15,2.68-8.47c0-2.75-0.49-5.04-1.48-6.87
			c-0.99-1.83-2.32-3.3-4-4.38c-1.68-1.08-3.63-1.86-5.85-2.32c-2.17-0.45-4.45-0.68-6.85-0.7L176.11,28.24z"/>
	</defs>
	<clipPath id="SVGID_28_">
		<use xlink:href="#SVGID_27_"  style="overflow:visible;"/>
	</clipPath>
	
		<linearGradient id="SVGID_29_" gradientUnits="userSpaceOnUse" x1="-223.3021" y1="343.5819" x2="-222.8277" y2="343.5819" gradientTransform="matrix(82.4514 -0.0422 -0.04 -78.0946 18601.4082 26874.2129)">
		<stop  offset="0" style="stop-color:#FFFFFF"/>
		<stop  offset="1" style="stop-color:#EBEBEC"/>
	</linearGradient>
	<rect x="176.09" y="28.22" class="st13" width="39.17" height="47.04"/>
</g>
<g>
	<defs>
		<path id="SVGID_30_" d="M187.13,37.73l6.75,0c0.95,0,1.93,0.06,2.93,0.19c0.99,0.13,1.85,0.38,2.6,0.74
			c0.74,0.36,1.35,0.87,1.83,1.54c0.47,0.65,0.71,1.55,0.71,2.71c0,1.25-0.28,2.18-0.8,2.83c-0.55,0.68-1.23,1.17-2.06,1.48
			c-0.84,0.32-1.79,0.52-2.84,0.58c-1.08,0.07-2.09,0.1-3.05,0.1l-6.07,0L187.13,37.73z M186.6,37.21l0.01,10.95v0.26l6.6,0
			c0.97,0,2-0.04,3.08-0.1c1.1-0.07,2.11-0.27,3.01-0.62c0.91-0.35,1.68-0.9,2.28-1.64c0.62-0.77,0.91-1.83,0.91-3.14
			c0-1.23-0.26-2.24-0.8-3c-0.53-0.74-1.21-1.32-2.03-1.71c-0.81-0.39-1.73-0.65-2.77-0.79c-1.02-0.14-2.02-0.2-3-0.2L186.6,37.21z
			 M176.38,28.97l18.6-0.01c2.47,0,4.8,0.23,7,0.69c2.2,0.46,4.12,1.22,5.77,2.29c1.64,1.06,2.94,2.48,3.91,4.28
			c0.96,1.79,1.45,4.04,1.45,6.76c0,3.28-0.88,6.04-2.63,8.32c-1.74,2.26-4.29,3.7-7.69,4.32l-0.37,0.07l12.36,19.78l-12.25,0.01
			l-10.21-18.78h-5.73l0.01,18.79l-10.22,0.01L176.38,28.97z M176.11,28.46h-0.26l0.02,47.52l11.28-0.01l-0.01-18.79l4.87,0
			l10.2,18.78l13.52-0.01l-12.46-19.92c3.31-0.66,5.88-2.15,7.64-4.45c1.83-2.37,2.74-5.26,2.73-8.62c0-2.78-0.5-5.1-1.51-6.99
			c-1.01-1.87-2.37-3.36-4.09-4.47c-1.71-1.1-3.69-1.89-5.95-2.36c-2.25-0.47-4.62-0.7-7.12-0.7L176.11,28.46z"/>
	</defs>
	<clipPath id="SVGID_31_">
		<use xlink:href="#SVGID_30_"  style="overflow:visible;"/>
	</clipPath>
	
		<linearGradient id="SVGID_32_" gradientUnits="userSpaceOnUse" x1="-223.2737" y1="343.5812" x2="-222.7992" y2="343.5812" gradientTransform="matrix(85.5903 -0.0437 -0.0415 -81.0674 19299.8906 27895.6992)">
		<stop  offset="0" style="stop-color:#004595"/>
		<stop  offset="1" style="stop-color:#003A75"/>
	</linearGradient>
	<rect x="175.83" y="28.44" class="st14" width="39.91" height="47.55"/>
</g>
<g>
	<defs>
		<path id="SVGID_33_" d="M232.8,42.21l6,14.6l-11.91,0.01L232.8,42.21z M227.65,28.21L206.6,75.23l11.85,0l4.06-9.96l18.94-0.01
			l4.2,9.96l12.12-0.01l-21.24-47L227.65,28.21z"/>
	</defs>
	<clipPath id="SVGID_34_">
		<use xlink:href="#SVGID_33_"  style="overflow:visible;"/>
	</clipPath>
	
		<linearGradient id="SVGID_35_" gradientUnits="userSpaceOnUse" x1="-223.4791" y1="343.6487" x2="-223.0047" y2="343.6487" gradientTransform="matrix(107.9186 -0.0551 -0.0522 -102.2159 24342.0801 35165.7773)">
		<stop  offset="0" style="stop-color:#FFFFFF"/>
		<stop  offset="1" style="stop-color:#EBEBEC"/>
	</linearGradient>
	<rect x="206.59" y="28.2" class="st15" width="51.2" height="47.05"/>
</g>
<g>
	<defs>
		<path id="SVGID_36_" d="M232.8,43.39l5.61,13.65l-11.14,0.01L232.8,43.39z M226.49,57.55l12.7-0.01l-6.14-14.95l-0.25-0.61
			L226.49,57.55z M227.82,28.94l8.54,0l21.01,46.49l-11.54,0.01l-4.2-9.96l-19.3,0.01l-4.06,9.96l-11.26,0L227.82,28.94z
			 M227.65,28.43h-0.18L206.2,75.96l12.43-0.01l4.05-9.96l18.58-0.01l4.2,9.96l12.71-0.01l-21.47-47.51L227.65,28.43z"/>
	</defs>
	<clipPath id="SVGID_37_">
		<use xlink:href="#SVGID_36_"  style="overflow:visible;"/>
	</clipPath>
	
		<linearGradient id="SVGID_38_" gradientUnits="userSpaceOnUse" x1="-223.4505" y1="343.6501" x2="-222.9761" y2="343.6501" gradientTransform="matrix(111.2524 -0.0567 -0.0538 -105.3736 25083.7148 36251.1836)">
		<stop  offset="0" style="stop-color:#004595"/>
		<stop  offset="1" style="stop-color:#003A75"/>
	</linearGradient>
	<rect x="206.19" y="28.41" class="st16" width="52.01" height="47.56"/>
</g>
<g>
	<defs>
		<path id="SVGID_39_" d="M42.98,28.63L43,75.64l34.37-0.02l-0.01-9.56l-23.62,0.01l-0.01-9.56l20.2-0.01
			c-0.31-1.69-0.47-3.47-0.47-5.31c0-1.46,0.1-2.88,0.3-4.26l-20.03,0.01l-0.01-8.77l22.38-0.01l0-9.56L42.98,28.63z"/>
	</defs>
	<clipPath id="SVGID_40_">
		<use xlink:href="#SVGID_39_"  style="overflow:visible;"/>
	</clipPath>
	
		<linearGradient id="SVGID_41_" gradientUnits="userSpaceOnUse" x1="-221.3503" y1="343.5506" x2="-220.8759" y2="343.5506" gradientTransform="matrix(72.4421 -0.037 -0.035 -68.6141 16090.0713 23616.3633)">
		<stop  offset="0" style="stop-color:#FFFFFF"/>
		<stop  offset="1" style="stop-color:#EBEBEC"/>
	</linearGradient>
	<rect x="42.97" y="28.61" class="st17" width="34.42" height="47.04"/>
</g>
<g>
	<defs>
		<path id="SVGID_42_" d="M43.25,29.36l32.6-0.02l0,9.05L53.46,38.4l0.01,9.28l19.99-0.01c-0.17,1.29-0.26,2.63-0.26,4
			c0,1.74,0.15,3.43,0.42,5.05l-19.88,0.01h-0.27l0,10.07l23.62-0.01l0,9.05l-33.84,0.02L43.25,29.36z M42.71,28.85l0.02,47.52
			l34.9-0.02l-0.01-10.07l-23.62,0.01l0-9.05l20.25-0.01l-0.05-0.3c-0.3-1.68-0.47-3.44-0.47-5.26c-0.01-1.45,0.1-2.86,0.29-4.22
			l0.04-0.29L54,47.17l-0.01-8.25l22.38-0.01l0-10.08L42.71,28.85z"/>
	</defs>
	<clipPath id="SVGID_43_">
		<use xlink:href="#SVGID_42_"  style="overflow:visible;"/>
	</clipPath>
	
		<linearGradient id="SVGID_44_" gradientUnits="userSpaceOnUse" x1="-221.3903" y1="343.5406" x2="-220.9159" y2="343.5406" gradientTransform="matrix(74.7236 -0.0382 -0.0363 -70.7751 16597.9727 24358.2734)">
		<stop  offset="0" style="stop-color:#004595"/>
		<stop  offset="1" style="stop-color:#003A75"/>
	</linearGradient>
	<rect x="42.7" y="28.82" class="st18" width="34.95" height="47.56"/>
</g>
<g>
	<defs>
		<path id="SVGID_45_" d="M148.33,2.76c-1.69,0.81-3.7,4.41-4.73,6.45c-0.93,1.01-1.67,2.25-2.61,3.65
			c-2.61,3.89-4.44,9.54-5.72,15.56v0.01c2.07-2.45,5.35-5.35,9.27-6.81l-0.06,4.29c0,0,2.44,0.64,3.93,1.67
			c2.24,1.54,4.14,3.78,6.76,4.67c0.79,5.1-6.02,7.65-10.8,7.93l-0.12,1.59c-0.12,1.64,0.61,3.25,2,4.42
			c2.63,2.21,4.88,4.66,6.29,7.31c1.41,2.66,6.17,2.49,7.14-0.3c3.02-8.72,0.91-19.76-4.87-29.37l1.45-2.11
			c1.33-0.08,2.78,0.1,4.23,0.28c2.14,0.27,4.3,0.53,6.11-0.03c3.04-0.94,5.12-3.21,4.57-6.73c-3.62-1.23-6.24-3.33-9.34-5.45
			c-1.54-1.06-4.47-2.34-7.33-2.92c1.29-2.04,1.94-4.1,1.94-4.1s-2.84-0.37-5.25-0.37C150.01,2.38,148.91,2.48,148.33,2.76"/>
	</defs>
	<clipPath id="SVGID_46_">
		<use xlink:href="#SVGID_45_"  style="overflow:visible;"/>
	</clipPath>
	
		<linearGradient id="SVGID_47_" gradientUnits="userSpaceOnUse" x1="-222.7536" y1="343.2167" x2="-222.2792" y2="343.2167" gradientTransform="matrix(75.8761 -0.0387 -0.0367 -71.8667 17049.6055 24686.5078)">
		<stop  offset="0" style="stop-color:#004595"/>
		<stop  offset="1" style="stop-color:#003A75"/>
	</linearGradient>
	<rect x="135.26" y="2.37" class="st19" width="36.49" height="53.79"/>
</g>
<g>
	<defs>
		<path id="SVGID_48_" d="M228.94,40.11c-5.51,0-10.75,5.79-14.78,21.55c0.04-0.08,0.09-0.16,0.13-0.23
			c11.37-42.25,31.81-5.68,40.86,14.04l2.6,0.01v0C251.78,62.59,239.82,40.12,228.94,40.11L228.94,40.11z"/>
	</defs>
	<clipPath id="SVGID_49_">
		<use xlink:href="#SVGID_48_"  style="overflow:visible;"/>
	</clipPath>
	
		<linearGradient id="SVGID_50_" gradientUnits="userSpaceOnUse" x1="-219.3646" y1="340.7688" x2="-218.8853" y2="340.7688" gradientTransform="matrix(-18.2447 118.2198 20.8402 97.5311 -10858.5137 -7316.2559)">
		<stop  offset="0" style="stop-color:#71CAEE"/>
		<stop  offset="0.272" style="stop-color:#2E97CF"/>
		<stop  offset="0.9817" style="stop-color:#004F85"/>
		<stop  offset="1" style="stop-color:#004F85"/>
	</linearGradient>
	<polygon class="st20" points="262.64,42.79 239.47,197.67 209.27,51.87 232.45,-103 	"/>
</g>
<g>
	<defs>
		<path id="SVGID_51_" d="M228.29,41.68c-5.14,0-10.04,5.33-13.9,19.65c0.13-0.23,0.26-0.46,0.39-0.67
			c10.17-33.38,26.65-4.68,35.36,14.78l5.43,0.03v0C249.52,62.31,238.42,41.68,228.29,41.68L228.29,41.68z"/>
	</defs>
	<clipPath id="SVGID_52_">
		<use xlink:href="#SVGID_51_"  style="overflow:visible;"/>
	</clipPath>
	
		<linearGradient id="SVGID_53_" gradientUnits="userSpaceOnUse" x1="-235.8854" y1="355.1431" x2="-235.4046" y2="355.1431" gradientTransform="matrix(4.9784 -27.8558 -4.8905 -26.7419 3153.0657 2939.0369)">
		<stop  offset="0" style="stop-color:#798D21"/>
		<stop  offset="1" style="stop-color:#CDD513"/>
	</linearGradient>
	<polygon class="st21" points="210.16,51.65 234.74,-90.09 259.79,51.1 235.22,192.84 	"/>
</g>
<g>
	<defs>
		<path id="SVGID_54_" d="M226.46,44.98c-4.33,0-8.47,4.29-11.91,15.51c0.05-0.07,0.09-0.14,0.13-0.21
			c8.86-27.24,22.16-5.22,30.91,15.14l4.92,0.03l0,0v0C244.6,62.29,235.16,44.98,226.46,44.98L226.46,44.98z"/>
	</defs>
	<clipPath id="SVGID_55_">
		<use xlink:href="#SVGID_54_"  style="overflow:visible;"/>
	</clipPath>
	
		<linearGradient id="SVGID_56_" gradientUnits="userSpaceOnUse" x1="-221.3791" y1="344.5503" x2="-220.8969" y2="344.5503" gradientTransform="matrix(-74.1305 -265.9178 -50.2516 418.1485 1157.8408 -202808.5)">
		<stop  offset="0" style="stop-color:#798D21"/>
		<stop  offset="1" style="stop-color:#CDD513"/>
	</linearGradient>
	<polygon class="st22" points="239.69,167.87 211.08,62.67 225.39,-59.39 254,45.81 	"/>
</g>
<g class="st4">
	<path class="st23" d="M261.59,75.48c0,0.84-0.66,1.5-1.51,1.5c-0.85,0-1.52-0.66-1.52-1.5c0-0.82,0.68-1.48,1.52-1.48
		C260.93,74,261.59,74.66,261.59,75.48z M258.93,75.48c0,0.66,0.49,1.18,1.15,1.18c0.65,0,1.13-0.52,1.13-1.17
		c0-0.66-0.48-1.19-1.14-1.19S258.93,74.83,258.93,75.48z M259.84,76.26h-0.34v-1.48c0.14-0.03,0.32-0.04,0.57-0.04
		c0.28,0,0.41,0.04,0.51,0.11c0.08,0.06,0.14,0.18,0.14,0.32c0,0.16-0.13,0.29-0.31,0.34v0.02c0.14,0.05,0.23,0.16,0.27,0.36
		c0.04,0.23,0.07,0.32,0.11,0.37h-0.37c-0.04-0.05-0.07-0.19-0.12-0.36c-0.03-0.16-0.12-0.23-0.31-0.23h-0.16V76.26z M259.85,75.42
		h0.16c0.19,0,0.34-0.06,0.34-0.22c0-0.14-0.1-0.23-0.32-0.23c-0.09,0-0.15,0.01-0.19,0.02V75.42z"/>
</g>
<g class="st4">
	<g class="st1">
		<defs>
			<polygon id="SVGID_57_" points="-26.88,-30.11 -26.88,57.54 -13.01,46.24 -0.31,57.54 -0.31,-30.11 			"/>
		</defs>
		<clipPath id="SVGID_58_">
			<use xlink:href="#SVGID_57_"  style="overflow:visible;"/>
		</clipPath>
		
			<linearGradient id="SVGID_59_" gradientUnits="userSpaceOnUse" x1="-219.7164" y1="342.3084" x2="-219.242" y2="342.3084" gradientTransform="matrix(56 0 0 -56 12277.2383 19182.9883)">
			<stop  offset="0" style="stop-color:#4B4848"/>
			<stop  offset="0.0205" style="stop-color:#484546"/>
			<stop  offset="0.1471" style="stop-color:#3B383A"/>
			<stop  offset="0.2816" style="stop-color:#302E30"/>
			<stop  offset="0.4245" style="stop-color:#282628"/>
			<stop  offset="0.5797" style="stop-color:#222123"/>
			<stop  offset="0.7561" style="stop-color:#1F1E20"/>
			<stop  offset="1" style="stop-color:#1D1D1E"/>
		</linearGradient>
		<rect x="-26.88" y="-30.11" class="st24" width="26.57" height="87.65"/>
	</g>
	<g class="st1">
		<defs>
			<polygon id="SVGID_60_" points="-24.98,-30.58 -24.98,53.49 -13.19,43.71 -2.69,53.25 -2.69,-30.11 -2.69,-30.58 			"/>
		</defs>
		<clipPath id="SVGID_61_">
			<use xlink:href="#SVGID_60_"  style="overflow:visible;"/>
		</clipPath>
		
			<linearGradient id="SVGID_62_" gradientUnits="userSpaceOnUse" x1="-219.1878" y1="341.9377" x2="-218.7134" y2="341.9377" gradientTransform="matrix(47 0 0 -47 10276.8418 16082.5234)">
			<stop  offset="0" style="stop-color:#4B4848"/>
			<stop  offset="0.0205" style="stop-color:#484546"/>
			<stop  offset="0.1471" style="stop-color:#3B383A"/>
			<stop  offset="0.2816" style="stop-color:#302E30"/>
			<stop  offset="0.4245" style="stop-color:#282628"/>
			<stop  offset="0.5797" style="stop-color:#222123"/>
			<stop  offset="0.7561" style="stop-color:#1F1E20"/>
			<stop  offset="1" style="stop-color:#1D1D1E"/>
		</linearGradient>
		<rect x="-24.98" y="-30.58" class="st25" width="22.3" height="84.08"/>
	</g>
	<g class="st1">
		<defs>
			<path id="SVGID_63_" d="M-13.45-12.62c-1.86,0-3.87-1.54-5.61-1.15c-1.8,0.41-2.94,2.68-4.56,3.46c-1.65,0.8-4.14,0.28-5.55,1.41
				c-1.42,1.14-1.47,3.68-2.61,5.1c-1.13,1.42-3.6,2.02-4.4,3.67c-0.78,1.62,0.27,3.93-0.14,5.73c-0.4,1.74-2.36,3.36-2.36,5.22
				c0,1.86,1.96,3.48,2.36,5.22c0.41,1.8-0.65,4.1,0.14,5.73c0.8,1.65,3.26,2.26,4.4,3.67c1.14,1.42,1.18,3.96,2.61,5.1
				c1.42,1.13,3.9,0.62,5.55,1.41c1.62,0.78,2.76,3.06,4.56,3.46c1.74,0.4,3.75-1.15,5.61-1.15c1.86,0,3.87,1.54,5.61,1.15
				c1.8-0.41,2.94-2.68,4.56-3.46c1.65-0.8,4.14-0.28,5.55-1.41c1.42-1.14,1.47-3.68,2.61-5.1c1.13-1.42,3.6-2.02,4.4-3.67
				c0.78-1.62-0.27-3.93,0.14-5.73c0.4-1.74,2.36-3.36,2.36-5.22c0-1.86-1.96-3.48-2.36-5.22c-0.41-1.8,0.65-4.1-0.14-5.73
				c-0.8-1.65-3.27-2.26-4.4-3.67C3.75-5.21,3.7-7.75,2.28-8.89c-1.42-1.13-3.9-0.62-5.55-1.41c-1.62-0.78-2.76-3.06-4.56-3.46
				c-0.2-0.04-0.4-0.06-0.6-0.06C-10.03-13.83-11.8-12.62-13.45-12.62"/>
		</defs>
		<clipPath id="SVGID_64_">
			<use xlink:href="#SVGID_63_"  style="overflow:visible;"/>
		</clipPath>
		
			<linearGradient id="SVGID_65_" gradientUnits="userSpaceOnUse" x1="-220.9839" y1="344.6848" x2="-220.5095" y2="344.6848" gradientTransform="matrix(52.6377 91.1711 91.1711 -52.6377 -19819.1523 38279.957)">
			<stop  offset="0" style="stop-color:#B88B30"/>
			<stop  offset="0.0989" style="stop-color:#B88B30"/>
			<stop  offset="0.1104" style="stop-color:#B88B30"/>
			<stop  offset="0.1736" style="stop-color:#C8A14A"/>
			<stop  offset="0.2643" style="stop-color:#DCBE6D"/>
			<stop  offset="0.3485" style="stop-color:#EBD48A"/>
			<stop  offset="0.4229" style="stop-color:#F4E29B"/>
			<stop  offset="0.4795" style="stop-color:#F7E6A2"/>
			<stop  offset="0.8976" style="stop-color:#B88B30"/>
			<stop  offset="0.9193" style="stop-color:#A9752C"/>
			<stop  offset="0.9734" style="stop-color:#894825"/>
			<stop  offset="1" style="stop-color:#7E3A22"/>
		</linearGradient>
		<polygon class="st26" points="-0.84,-36.01 33.42,23.33 -26.06,57.67 -60.32,-1.66 		"/>
	</g>
	<ellipse class="st27" cx="-13.43" cy="10.86" rx="20.88" ry="20.99"/>
	<g class="st1">
		<defs>
			<path id="SVGID_66_" d="M-34.01,10.83c0,11.34,9.22,20.56,20.56,20.56c11.34,0,20.56-9.22,20.56-20.56
				C7.11-0.5-2.12-9.73-13.45-9.73C-24.79-9.73-34.01-0.5-34.01,10.83"/>
		</defs>
		<clipPath id="SVGID_67_">
			<use xlink:href="#SVGID_66_"  style="overflow:visible;"/>
		</clipPath>
		
			<linearGradient id="SVGID_68_" gradientUnits="userSpaceOnUse" x1="-220.4655" y1="344.3752" x2="-219.9911" y2="344.3752" gradientTransform="matrix(61.2566 61.2566 61.2566 -61.2566 -7618.2578 34596.5391)">
			<stop  offset="0" style="stop-color:#B88B30"/>
			<stop  offset="0.0989" style="stop-color:#B88B30"/>
			<stop  offset="0.1104" style="stop-color:#B88B30"/>
			<stop  offset="0.1736" style="stop-color:#C8A14A"/>
			<stop  offset="0.2643" style="stop-color:#DCBE6D"/>
			<stop  offset="0.3485" style="stop-color:#EBD48A"/>
			<stop  offset="0.4229" style="stop-color:#F4E29B"/>
			<stop  offset="0.4795" style="stop-color:#F7E6A2"/>
			<stop  offset="0.8976" style="stop-color:#B88B30"/>
			<stop  offset="0.9193" style="stop-color:#A9752C"/>
			<stop  offset="0.9734" style="stop-color:#894825"/>
			<stop  offset="1" style="stop-color:#7E3A22"/>
		</linearGradient>
		<polygon class="st28" points="-13.45,-30.29 27.67,10.83 -13.45,51.95 -54.57,10.83 		"/>
	</g>
	<g class="st1">
		<defs>
			<path id="SVGID_69_" d="M-15.97-3.45c-0.83,0.42-1.82,2.3-2.33,3.37c-0.46,0.53-0.82,1.18-1.28,1.9
				c-1.29,2.03-2.19,4.99-2.82,8.13c1.02-1.28,2.63-2.8,4.56-3.56l-0.03,2.24c0,0,1.2,0.33,1.94,0.87c1.1,0.81,2.04,1.98,3.33,2.44
				c0.39,2.66-2.96,3.99-5.32,4.14l-0.06,0.83c-0.06,0.86,0.3,1.7,0.99,2.31c1.29,1.16,2.4,2.43,3.09,3.82
				c0.69,1.39,3.04,1.3,3.52-0.16c1.49-4.55,0.45-10.32-2.39-15.34l0.71-1.1c0.66-0.04,1.37,0.05,2.09,0.15
				c1.05,0.14,2.12,0.28,3.01-0.01c1.5-0.49,2.52-1.67,2.25-3.51c-1.78-0.64-3.07-1.74-4.6-2.85c-0.76-0.55-2.2-1.22-3.61-1.53
				c0.64-1.06,0.96-2.14,0.96-2.14s-1.4-0.19-2.58-0.19C-15.14-3.65-15.68-3.6-15.97-3.45"/>
		</defs>
		<use xlink:href="#SVGID_69_"  style="overflow:visible;fill:#353535;"/>
		<clipPath id="SVGID_70_">
			<use xlink:href="#SVGID_69_"  style="overflow:visible;"/>
		</clipPath>
		<rect x="-22.4" y="-3.65" class="st29" width="17.95" height="28.09"/>
	</g>
	<g class="st1">
		<g>
			<path d="M-32.21,11.99c0.06,0,0.1,0.11,0.1,0.25c0,0.15-0.04,0.25-0.1,0.25c-0.06,0-0.1-0.09-0.11-0.25
				C-32.31,12.09-32.27,11.99-32.21,11.99z"/>
			<path d="M-25.49,25.48c0.11,0.08,0.26,0.19,0.4,0.31c0.22,0.18,0.34,0.31,0.41,0.43c0.05,0.1,0.05,0.2,0,0.26
				c-0.09,0.12-0.29,0.09-0.49-0.01c0,0,0,0,0,0c0.11,0.12,0.14,0.24,0.11,0.36c-0.04,0.16-0.06,0.28-0.05,0.34
				c-0.09-0.07-0.14-0.1-0.23-0.17c-0.01-0.05,0.01-0.15,0.05-0.3c0.04-0.16-0.01-0.27-0.2-0.43c-0.08-0.06-0.12-0.1-0.2-0.16
				c-0.13,0.15-0.19,0.22-0.31,0.37c-0.09-0.07-0.13-0.11-0.21-0.18C-25.93,25.97-25.78,25.81-25.49,25.48z M-25.62,26.03
				c0.09,0.07,0.13,0.11,0.21,0.18c0.22,0.18,0.42,0.23,0.5,0.13c0.09-0.11-0.03-0.28-0.24-0.45c-0.1-0.08-0.17-0.13-0.21-0.16
				C-25.46,25.85-25.52,25.91-25.62,26.03z"/>
			<path d="M-23.64,27.53c-0.28-0.17-0.41-0.26-0.68-0.44c-0.09,0.13-0.14,0.2-0.23,0.33c0.31,0.21,0.46,0.31,0.78,0.5
				c-0.03,0.04-0.04,0.06-0.06,0.1c-0.41-0.25-0.62-0.38-1.01-0.66c0.26-0.36,0.39-0.54,0.66-0.9c0.36,0.25,0.54,0.37,0.92,0.6
				c-0.03,0.04-0.04,0.06-0.06,0.1c-0.29-0.17-0.43-0.26-0.7-0.45c-0.08,0.11-0.12,0.17-0.2,0.29c0.27,0.18,0.4,0.27,0.68,0.44
				C-23.61,27.47-23.62,27.49-23.64,27.53z"/>
			<path d="M-22.06,28.91c-0.12-0.03-0.36-0.1-0.62-0.23c-0.29-0.15-0.5-0.31-0.63-0.51c-0.11-0.17-0.13-0.35-0.04-0.5
				c0.18-0.28,0.66-0.27,1.26,0.04c0.21,0.11,0.36,0.21,0.43,0.27c-0.04,0.03-0.07,0.05-0.11,0.08c-0.09-0.07-0.2-0.15-0.38-0.24
				c-0.44-0.22-0.81-0.24-0.95,0c-0.15,0.24,0.05,0.55,0.5,0.77c0.16,0.08,0.28,0.12,0.34,0.14c0.06-0.12,0.09-0.18,0.15-0.29
				c-0.15-0.07-0.23-0.11-0.38-0.19c0.02-0.04,0.03-0.06,0.06-0.1c0.24,0.13,0.37,0.19,0.62,0.3
				C-21.92,28.63-21.97,28.72-22.06,28.91z"/>
			<path d="M-21.73,29.03c0.03-0.05,0.12-0.06,0.22-0.02c0.1,0.04,0.15,0.11,0.13,0.17c-0.02,0.05-0.11,0.07-0.22,0.02
				C-21.7,29.15-21.75,29.08-21.73,29.03z"/>
			<path d="M-20.43,29.45c0.1,0.08,0.26,0.17,0.44,0.23c0.27,0.09,0.45,0.06,0.49-0.04c0.03-0.1-0.06-0.19-0.31-0.33
				c-0.3-0.17-0.46-0.33-0.41-0.47c0.06-0.16,0.35-0.19,0.73-0.07c0.2,0.06,0.33,0.13,0.41,0.18c-0.04,0.04-0.06,0.05-0.11,0.09
				c-0.06-0.04-0.18-0.11-0.35-0.16c-0.26-0.09-0.4-0.04-0.42,0.03c-0.04,0.1,0.06,0.19,0.32,0.33c0.31,0.17,0.46,0.31,0.41,0.46
				c-0.05,0.16-0.33,0.24-0.82,0.08c-0.2-0.07-0.4-0.17-0.49-0.25C-20.49,29.5-20.47,29.49-20.43,29.45z"/>
			<path d="M-18.52,29.85c-0.12,0.11-0.18,0.17-0.31,0.28c-0.11-0.03-0.17-0.04-0.28-0.08c0.41-0.34,0.61-0.52,0.99-0.88
				c0.12,0.03,0.18,0.04,0.31,0.07c0.17,0.49,0.26,0.73,0.46,1.21c-0.12-0.02-0.18-0.03-0.29-0.06c-0.06-0.15-0.09-0.23-0.15-0.38
				C-18.09,29.96-18.23,29.92-18.52,29.85z M-17.82,29.9c-0.05-0.14-0.08-0.21-0.12-0.35c-0.03-0.08-0.04-0.15-0.06-0.22
				c0,0,0,0-0.01,0c-0.05,0.06-0.09,0.11-0.15,0.17c-0.11,0.1-0.17,0.16-0.28,0.26C-18.19,29.82-18.07,29.85-17.82,29.9z"/>
			<path d="M-16.84,29.45c0.16,0.01,0.35,0.03,0.55,0.06c0.37,0.05,0.63,0.13,0.8,0.23c0.17,0.11,0.27,0.24,0.25,0.42
				c-0.02,0.18-0.14,0.32-0.34,0.4c-0.21,0.08-0.55,0.1-0.96,0.04c-0.2-0.03-0.36-0.06-0.5-0.09
				C-16.96,30.09-16.92,29.87-16.84,29.45z M-16.74,30.45c0.07,0.02,0.17,0.03,0.28,0.05c0.59,0.08,0.92-0.06,0.96-0.36
				c0.03-0.26-0.22-0.44-0.78-0.52c-0.14-0.02-0.24-0.03-0.31-0.03C-16.66,29.93-16.69,30.11-16.74,30.45z"/>
			<path d="M-13.8,30.29c-0.33,0-0.49-0.01-0.82-0.02c-0.01,0.16-0.01,0.24-0.02,0.39c0.37,0.02,0.56,0.02,0.93,0.03
				c0,0.05,0,0.07,0,0.12c-0.49,0-0.73-0.01-1.21-0.04c0.03-0.44,0.05-0.66,0.08-1.09c0.44,0.03,0.66,0.04,1.1,0.04
				c0,0.05,0,0.07,0,0.12c-0.34,0-0.5-0.01-0.84-0.02c-0.01,0.14-0.01,0.21-0.02,0.35c0.32,0.02,0.49,0.02,0.81,0.02
				C-13.8,30.22-13.8,30.24-13.8,30.29z"/>
			<path d="M-13.36,29.72c0.13-0.02,0.32-0.03,0.5-0.03c0.28-0.01,0.46,0.01,0.59,0.06c0.11,0.04,0.17,0.11,0.18,0.2
				c0.01,0.14-0.15,0.25-0.37,0.3c0,0,0,0,0,0.01c0.16,0.02,0.27,0.09,0.33,0.2c0.08,0.15,0.14,0.25,0.19,0.29
				c-0.11,0.01-0.17,0.01-0.29,0.02c-0.04-0.03-0.09-0.12-0.16-0.25c-0.07-0.15-0.19-0.2-0.43-0.19c-0.1,0-0.15,0.01-0.26,0.01
				c0.01,0.19,0.01,0.28,0.01,0.47c-0.11,0-0.17,0-0.28,0.01C-13.35,30.37-13.35,30.15-13.36,29.72z M-13.08,30.21
				c0.11,0,0.17,0,0.28-0.01c0.29-0.01,0.47-0.11,0.46-0.23c-0.01-0.14-0.2-0.19-0.48-0.18c-0.13,0-0.22,0.01-0.26,0.02
				C-13.09,29.97-13.09,30.05-13.08,30.21z"/>
			<path d="M-11.05,30.65c0-0.03-0.01-0.05-0.01-0.09c0.08-0.05,0.12-0.08,0.2-0.14c0.48-0.32,0.68-0.5,0.65-0.66
				c-0.02-0.11-0.13-0.18-0.42-0.14c-0.18,0.03-0.32,0.09-0.4,0.15c-0.04-0.04-0.06-0.05-0.1-0.09c0.13-0.08,0.31-0.15,0.53-0.18
				c0.42-0.06,0.62,0.05,0.65,0.2c0.04,0.19-0.19,0.4-0.58,0.67c-0.06,0.04-0.09,0.06-0.15,0.1c0,0,0,0,0,0
				c0.37-0.05,0.55-0.08,0.92-0.15c0.01,0.05,0.01,0.07,0.02,0.12C-10.26,30.54-10.52,30.58-11.05,30.65z"/>
			<path d="M-8.24,29.54c0.11,0.35-0.09,0.61-0.54,0.72c-0.39,0.09-0.71-0.04-0.79-0.38c-0.08-0.34,0.16-0.59,0.54-0.69
				C-8.63,29.09-8.34,29.22-8.24,29.54z M-9.3,29.82c0.06,0.27,0.26,0.39,0.51,0.33c0.28-0.07,0.36-0.27,0.29-0.53
				c-0.07-0.25-0.24-0.38-0.51-0.32C-9.24,29.35-9.37,29.54-9.3,29.82z"/>
			<path d="M-6.73,29.05c0.13,0.34-0.03,0.61-0.47,0.76c-0.38,0.13-0.71,0.01-0.82-0.32c-0.11-0.34,0.11-0.6,0.48-0.73
				C-7.15,28.63-6.86,28.74-6.73,29.05z M-7.76,29.41c0.09,0.26,0.3,0.36,0.54,0.28c0.27-0.09,0.34-0.3,0.24-0.55
				c-0.09-0.24-0.27-0.36-0.53-0.28C-7.74,28.95-7.85,29.14-7.76,29.41z"/>
			<path d="M-5.53,27.98c0.02,0.03,0.03,0.05,0.04,0.09c-0.13,0.49-0.21,0.74-0.39,1.23c-0.11,0.04-0.16,0.07-0.27,0.11
				c0.19-0.48,0.27-0.72,0.42-1.2c0,0,0,0,0,0c-0.35,0.16-0.53,0.23-0.89,0.37c-0.02-0.04-0.03-0.07-0.05-0.11
				C-6.2,28.29-5.97,28.19-5.53,27.98z"/>
			<path d="M-4.16,27.27c0.02,0.03,0.03,0.05,0.05,0.08c-0.09,0.5-0.15,0.76-0.28,1.26c-0.1,0.05-0.15,0.08-0.26,0.13
				c0.14-0.49,0.21-0.74,0.31-1.23c0,0,0,0,0,0c-0.34,0.19-0.51,0.28-0.85,0.45c-0.02-0.04-0.03-0.06-0.06-0.11
				C-4.8,27.63-4.59,27.52-4.16,27.27z"/>
			<path d="M-3.51,27.81c-0.07-0.11,0.01-0.27,0.19-0.45c0,0,0,0-0.01,0c-0.22,0.07-0.35,0.04-0.4-0.03
				c-0.09-0.14,0.07-0.37,0.36-0.56c0.32-0.21,0.55-0.22,0.63-0.11c0.05,0.07,0.05,0.2-0.12,0.39c0,0,0,0,0,0
				c0.24-0.1,0.42-0.11,0.5-0.01c0.11,0.15-0.07,0.43-0.4,0.65C-3.13,27.92-3.43,27.94-3.51,27.81z M-2.59,27.21
				c-0.08-0.11-0.25-0.06-0.51,0.06c-0.18,0.16-0.24,0.3-0.19,0.38c0.05,0.09,0.24,0.09,0.46-0.05C-2.61,27.46-2.53,27.3-2.59,27.21
				z M-3.52,27.18c0.06,0.09,0.22,0.06,0.43-0.04c0.13-0.12,0.2-0.25,0.14-0.33c-0.05-0.07-0.18-0.09-0.38,0.04
				C-3.52,26.98-3.58,27.11-3.52,27.18z"/>
			<path d="M-2.03,26.94c0.08-0.03,0.25-0.1,0.41-0.23c0.28-0.22,0.29-0.39,0.23-0.45c-0.1-0.11-0.34,0-0.55,0.17
				c-0.05,0.04-0.07,0.06-0.12,0.09c-0.03-0.03-0.04-0.05-0.07-0.08c0.05-0.04,0.07-0.06,0.12-0.09c0.16-0.12,0.32-0.32,0.23-0.42
				c-0.06-0.06-0.18-0.06-0.37,0.09c-0.12,0.1-0.22,0.22-0.27,0.3c-0.05-0.02-0.07-0.02-0.12-0.04c0.06-0.09,0.19-0.25,0.36-0.38
				c0.3-0.24,0.52-0.26,0.6-0.16c0.07,0.08,0.04,0.24-0.12,0.43c0,0,0,0,0,0c0.21-0.14,0.43-0.2,0.53-0.08
				c0.11,0.13,0.02,0.42-0.38,0.73c-0.18,0.14-0.37,0.24-0.48,0.27C-2.03,27.03-2.03,27-2.03,26.94z"/>
			<path d="M5.03,12.5c-0.06,0-0.1-0.11-0.1-0.25c0-0.15,0.04-0.25,0.1-0.25c0.06,0,0.1,0.1,0.1,0.26C5.13,12.4,5.08,12.5,5.03,12.5
				z"/>
		</g>
	</g>
	<g class="st1">
		<g>
			<path d="M-32.23,10.09c-0.24,0.35-0.35,0.53-0.57,0.91c0,0.11-0.01,0.29-0.02,0.53c0.21,0.01,0.32,0.01,0.53,0.01
				c0,0.2,0,0.3,0,0.5c-0.49,0-0.73,0-1.22,0c0-0.02,0-0.16,0-0.41c0-0.25,0-0.44,0.01-0.55c0.03-0.92,0.19-1.34,0.42-1.31
				c0.08,0.01,0.14,0.09,0.19,0.23c0.05,0.15,0.08,0.31,0.08,0.51c0.25-0.4,0.37-0.59,0.63-0.96C-32.2,9.77-32.21,9.88-32.23,10.09z
				 M-33.36,11.52c0.16,0,0.24,0.01,0.4,0.01c0.01-0.12,0.01-0.24,0.02-0.36c0.01-0.3,0-0.52-0.02-0.66
				c-0.02-0.14-0.08-0.21-0.16-0.22c-0.07-0.01-0.12,0.06-0.16,0.21c-0.04,0.15-0.06,0.38-0.07,0.71
				C-33.36,11.27-33.36,11.37-33.36,11.52z"/>
			<path d="M-33.15,8.56c0.13,0.02,0.2,0.04,0.33,0.06c0.06-0.46,0.09-0.68,0.17-1.13c0.06,0.01,0.08,0.02,0.14,0.03
				c-0.08,0.44-0.11,0.66-0.17,1.12c0.17,0.03,0.26,0.05,0.43,0.08c0.08-0.61,0.13-0.91,0.24-1.49c0.06,0.02,0.09,0.02,0.15,0.04
				c-0.15,0.75-0.21,1.14-0.3,1.94c-0.48-0.07-0.72-0.11-1.21-0.19c0.1-0.86,0.16-1.28,0.32-2.09c0.06,0.02,0.09,0.02,0.15,0.04
				C-33.01,7.59-33.06,7.91-33.15,8.56z"/>
			<path d="M-32.32,4.38c0.03,0.08,0.05,0.12,0.09,0.2c-0.08,0.12-0.16,0.33-0.25,0.63c-0.08,0.28-0.09,0.52-0.05,0.72
				s0.14,0.32,0.28,0.36c0.13,0.04,0.26-0.01,0.39-0.15c0.12-0.14,0.22-0.34,0.3-0.6c0.08-0.28,0.11-0.51,0.08-0.69
				c0.08-0.07,0.11-0.1,0.19-0.17c0.01,0.27-0.04,0.58-0.14,0.96c-0.11,0.39-0.24,0.69-0.41,0.89c-0.17,0.2-0.34,0.28-0.52,0.23
				c-0.18-0.05-0.3-0.22-0.35-0.52c-0.05-0.3-0.03-0.66,0.09-1.06C-32.53,4.82-32.42,4.56-32.32,4.38z"/>
			<path d="M-31.65,4.15c-0.17-0.07-0.27-0.24-0.29-0.51c-0.03-0.27,0.03-0.59,0.18-0.95c0.17-0.4,0.36-0.68,0.56-0.83
				c0.2-0.15,0.38-0.17,0.55-0.06c0.18,0.11,0.26,0.29,0.27,0.54s-0.07,0.56-0.23,0.94c-0.15,0.34-0.31,0.59-0.49,0.74
				C-31.29,4.18-31.47,4.23-31.65,4.15z M-31.49,3.73c0.13,0.06,0.26,0.04,0.4-0.04c0.14-0.09,0.25-0.24,0.35-0.47
				c0.11-0.26,0.16-0.47,0.14-0.64c-0.02-0.17-0.09-0.3-0.23-0.38c-0.28-0.16-0.55,0.02-0.79,0.57c-0.1,0.24-0.14,0.45-0.11,0.62
				C-31.71,3.55-31.63,3.67-31.49,3.73z"/>
			<path d="M-28.78-0.07c-0.33-0.1-0.5-0.14-0.83-0.22c0.12,0.41,0.18,0.62,0.32,1.02c-0.02,0.03-0.03,0.05-0.05,0.08
				c-0.4,0.02-0.6,0.04-1.01,0.09c0.2,0.3,0.3,0.45,0.51,0.74c-0.07,0.13-0.11,0.2-0.18,0.33c-0.33-0.45-0.49-0.69-0.8-1.16
				c0.04-0.07,0.06-0.1,0.09-0.16c0.45-0.05,0.67-0.06,1.11-0.08c-0.17-0.43-0.24-0.65-0.39-1.09c0.04-0.06,0.06-0.09,0.1-0.15
				c0.53,0.11,0.8,0.18,1.32,0.32C-28.66-0.25-28.7-0.19-28.78-0.07z"/>
			<path d="M-28.99-1.64c0.11,0.09,0.16,0.14,0.26,0.23c0.23-0.29,0.35-0.44,0.6-0.72c0.04,0.04,0.06,0.06,0.11,0.1
				c-0.24,0.28-0.36,0.42-0.6,0.71c0.14,0.12,0.2,0.18,0.34,0.3c0.31-0.39,0.47-0.58,0.81-0.94c0.04,0.04,0.07,0.07,0.11,0.11
				C-27.79-1.37-28-1.12-28.39-0.6c-0.38-0.33-0.58-0.5-0.96-0.83c0.42-0.56,0.65-0.82,1.11-1.33c0.04,0.04,0.07,0.07,0.11,0.11
				C-28.49-2.26-28.66-2.06-28.99-1.64z"/>
			<path d="M-25.8-3.31c-0.65,0.06-0.98,0.11-1.64,0.24c0.25,0.27,0.37,0.41,0.62,0.68c-0.1,0.1-0.15,0.15-0.24,0.25
				c-0.35-0.37-0.53-0.56-0.88-0.93c0.04-0.05,0.07-0.07,0.11-0.11c0.64-0.15,0.96-0.21,1.6-0.29c-0.22-0.27-0.33-0.41-0.56-0.69
				c0.11-0.1,0.17-0.14,0.28-0.24c0.32,0.41,0.48,0.61,0.8,1.02C-25.75-3.36-25.76-3.34-25.8-3.31z"/>
			<path d="M-24.88-4.06c-0.17,0.13-0.26,0.19-0.42,0.32c-0.3-0.41-0.46-0.62-0.76-1.03c0.28-0.23,0.47-0.36,0.55-0.42
				c0.32-0.23,0.6-0.36,0.85-0.39c0.25-0.03,0.42,0.03,0.51,0.19C-23.91-5-24.17-4.58-24.88-4.06z M-25.66-4.87
				c0.22,0.31,0.33,0.47,0.55,0.78c0.07-0.04,0.15-0.1,0.25-0.17c0.21-0.15,0.34-0.3,0.41-0.46c0.07-0.16,0.07-0.31-0.02-0.45
				c-0.16-0.26-0.49-0.23-0.97,0.12C-25.47-5.03-25.55-4.97-25.66-4.87z"/>
			<path d="M-22.14-5.72c-0.11-0.07-0.17-0.1-0.28-0.16c-0.35,0.18-0.53,0.27-0.87,0.47c-0.02,0.13-0.02,0.2-0.04,0.33
				c-0.14,0.08-0.21,0.12-0.34,0.21c0.1-0.67,0.16-1.01,0.32-1.68c0.04-0.02,0.05-0.03,0.09-0.05c0.61,0.27,0.9,0.41,1.48,0.72
				C-21.93-5.82-22-5.79-22.14-5.72z M-23.16-6.28c-0.05,0.28-0.07,0.42-0.1,0.7c0.28-0.16,0.42-0.23,0.7-0.37
				C-22.8-6.09-22.92-6.15-23.16-6.28z"/>
			<path d="M-21.05-6.21c-0.19,0.08-0.29,0.12-0.48,0.21c-0.21-0.47-0.31-0.71-0.51-1.18c0.32-0.15,0.53-0.24,0.63-0.27
				c0.36-0.15,0.67-0.2,0.91-0.17c0.25,0.03,0.4,0.13,0.45,0.3C-19.91-6.88-20.25-6.54-21.05-6.21z M-21.64-7.18
				c0.15,0.35,0.22,0.53,0.37,0.89c0.08-0.03,0.17-0.06,0.28-0.11c0.23-0.09,0.4-0.21,0.5-0.34c0.1-0.14,0.13-0.28,0.08-0.44
				c-0.1-0.29-0.43-0.34-0.97-0.12C-21.42-7.29-21.5-7.25-21.64-7.18z"/>
			<path d="M-19.76-7.37c-0.06-0.18-0.01-0.36,0.15-0.53c0.15-0.18,0.4-0.31,0.73-0.4c0.37-0.1,0.67-0.1,0.9-0.03
				c0.22,0.07,0.35,0.21,0.39,0.41c0.04,0.21-0.02,0.39-0.19,0.55c-0.17,0.16-0.42,0.28-0.77,0.36c-0.32,0.08-0.58,0.09-0.79,0.02
				C-19.56-7.06-19.7-7.18-19.76-7.37z M-19.39-7.49c0.04,0.14,0.13,0.24,0.28,0.3c0.14,0.06,0.32,0.07,0.52,0.01
				c0.24-0.06,0.41-0.15,0.51-0.26c0.11-0.12,0.14-0.25,0.11-0.41c-0.07-0.32-0.36-0.44-0.87-0.3c-0.23,0.06-0.38,0.15-0.48,0.27
				C-19.41-7.77-19.44-7.63-19.39-7.49z"/>
			<path d="M-15.69-8.05c0.02,0.2,0.03,0.3,0.05,0.49c-0.14,0.01-0.21,0.02-0.35,0.04c-0.06-0.51-0.09-0.77-0.15-1.28
				c0.28-0.04,0.45-0.06,0.51-0.06c0.8-0.07,1.21,0.05,1.22,0.3c0.01,0.29-0.33,0.44-1.01,0.5C-15.46-8.06-15.55-8.06-15.69-8.05z
				 M-15.75-8.68c0.02,0.19,0.03,0.28,0.05,0.47c0.15-0.01,0.24-0.01,0.24-0.02c0.45-0.04,0.67-0.13,0.66-0.31
				c-0.01-0.16-0.26-0.23-0.75-0.18C-15.6-8.7-15.66-8.69-15.75-8.68z"/>
			<path d="M-14.11-8.3c0-0.19,0.09-0.35,0.29-0.47c0.2-0.13,0.47-0.19,0.81-0.18c0.38,0.01,0.68,0.09,0.87,0.22
				c0.19,0.13,0.28,0.3,0.26,0.5c-0.02,0.21-0.13,0.37-0.33,0.47c-0.2,0.11-0.48,0.15-0.84,0.14c-0.33-0.01-0.58-0.07-0.77-0.2
				C-14.01-7.95-14.1-8.11-14.11-8.3z M-13.72-8.31c0,0.15,0.06,0.27,0.18,0.37c0.12,0.1,0.28,0.15,0.5,0.16
				c0.24,0.01,0.43-0.03,0.57-0.11s0.21-0.21,0.22-0.37c0.02-0.33-0.23-0.52-0.75-0.54c-0.23-0.01-0.41,0.04-0.53,0.12
				C-13.67-8.58-13.72-8.46-13.72-8.31z"/>
			<path d="M-10.1-7.33c-0.23-0.27-0.35-0.4-0.6-0.66c-0.08-0.01-0.21-0.03-0.38-0.06c-0.03,0.22-0.04,0.33-0.07,0.56
				c-0.14-0.02-0.21-0.03-0.35-0.04c0.06-0.51,0.08-0.77,0.14-1.28c0.01,0,0.11,0.01,0.29,0.03c0.18,0.02,0.31,0.03,0.39,0.05
				c0.66,0.09,0.96,0.29,0.91,0.53c-0.02,0.08-0.08,0.14-0.19,0.19c-0.11,0.04-0.24,0.06-0.39,0.06c0.27,0.28,0.4,0.43,0.64,0.72
				C-9.86-7.29-9.94-7.3-10.1-7.33z M-11.02-8.61c-0.02,0.17-0.03,0.25-0.05,0.41c0.09,0.02,0.17,0.03,0.25,0.04
				c0.22,0.03,0.38,0.04,0.48,0.02c0.1-0.02,0.16-0.07,0.18-0.15c0.01-0.07-0.03-0.13-0.14-0.18c-0.1-0.05-0.27-0.09-0.51-0.12
				C-10.83-8.6-10.91-8.61-11.02-8.61z"/>
			<path d="M-7.52-6.66c-0.07-0.02-0.1-0.03-0.17-0.06c-0.21-0.62-0.33-0.92-0.59-1.53c0.16,0.04,0.24,0.07,0.4,0.11
				c0.17,0.44,0.25,0.67,0.39,1.11C-7.13-7.3-6.94-7.44-6.56-7.7c0.15,0.06,0.23,0.08,0.38,0.14C-6.74-7.21-7.01-7.03-7.52-6.66z"/>
			<path d="M-5.6-7.15c-0.06,0.13-0.08,0.2-0.14,0.33c0.33,0.14,0.49,0.22,0.81,0.37c-0.03,0.05-0.04,0.08-0.06,0.13
				C-5.31-6.47-5.47-6.54-5.8-6.68C-5.87-6.51-5.9-6.43-5.98-6.25c0.44,0.19,0.65,0.29,1.08,0.5C-4.93-5.7-4.94-5.67-4.97-5.61
				c-0.55-0.28-0.83-0.41-1.4-0.64c0.19-0.48,0.29-0.72,0.48-1.19c0.61,0.25,0.92,0.39,1.51,0.69C-4.41-6.7-4.42-6.67-4.45-6.61
				C-4.9-6.84-5.13-6.95-5.6-7.15z"/>
			<path d="M-3.21-5.92c-0.23,0.39-0.34,0.58-0.57,0.97c-0.12-0.07-0.18-0.11-0.31-0.18c0.22-0.39,0.33-0.59,0.55-0.98
				c-0.3-0.18-0.46-0.26-0.77-0.42c0.03-0.06,0.04-0.08,0.07-0.14c0.78,0.4,1.16,0.63,1.89,1.12C-2.38-5.5-2.39-5.48-2.43-5.42
				C-2.73-5.63-2.89-5.73-3.21-5.92z"/>
			<path d="M-1.86-5.02c-0.08,0.12-0.12,0.18-0.2,0.29c0.29,0.21,0.44,0.32,0.72,0.55C-1.38-4.13-1.4-4.1-1.43-4.06
				c-0.28-0.23-0.42-0.34-0.71-0.55C-2.25-4.45-2.3-4.38-2.41-4.23c0.39,0.28,0.58,0.43,0.95,0.75c-0.04,0.05-0.06,0.07-0.1,0.12
				c-0.48-0.4-0.73-0.59-1.23-0.95c0.28-0.43,0.43-0.64,0.71-1.07c0.55,0.38,0.82,0.59,1.33,1.02c-0.04,0.05-0.06,0.07-0.1,0.12
				C-1.24-4.56-1.44-4.72-1.86-5.02z"/>
			<path d="M-0.16-2.05C-0.21-2.42-0.24-2.6-0.3-2.97c-0.06-0.06-0.15-0.15-0.28-0.28c-0.14,0.17-0.22,0.25-0.36,0.42
				c-0.11-0.1-0.16-0.15-0.27-0.24c0.32-0.39,0.49-0.59,0.81-0.99c0.01,0.01,0.09,0.07,0.23,0.2c0.14,0.12,0.24,0.22,0.3,0.27
				c0.5,0.47,0.64,0.82,0.47,1C0.54-2.53,0.45-2.52,0.33-2.55C0.21-2.58,0.1-2.65-0.02-2.74c0.07,0.4,0.09,0.6,0.14,1
				C0.01-1.87-0.05-1.93-0.16-2.05z M-0.22-3.67c-0.11,0.13-0.16,0.19-0.27,0.32c0.06,0.07,0.12,0.13,0.19,0.19
				c0.16,0.16,0.29,0.26,0.39,0.31c0.1,0.05,0.17,0.04,0.23-0.02C0.37-2.93,0.36-3.01,0.3-3.12c-0.06-0.1-0.18-0.24-0.35-0.41
				C-0.08-3.55-0.14-3.6-0.22-3.67z"/>
			<path d="M0.35-1.48C0.72-1.84,0.9-2.01,1.26-2.37c0.1,0.12,0.16,0.18,0.26,0.3C1.15-1.72,0.96-1.55,0.59-1.2
				C0.5-1.32,0.45-1.37,0.35-1.48z"/>
			<path d="M1.99,0.77C1.99,0.06,1.97-0.3,1.89-1.01C1.62-0.78,1.48-0.66,1.2-0.43C1.11-0.54,1.07-0.6,0.98-0.71
				c0.38-0.33,0.57-0.5,0.96-0.83C1.98-1.5,2-1.47,2.04-1.42c0.09,0.7,0.12,1.05,0.15,1.74c0.28-0.21,0.42-0.31,0.7-0.52
				C2.97-0.07,3.01,0,3.1,0.13c-0.42,0.3-0.62,0.44-1.04,0.74C2.03,0.83,2.02,0.81,1.99,0.77z"/>
			<path d="M3.11,2.82C3.17,2.7,3.2,2.63,3.25,2.51c-0.19-0.4-0.29-0.59-0.49-0.97C2.63,1.52,2.57,1.51,2.44,1.49
				C2.35,1.34,2.31,1.26,2.22,1.11c0.65,0.11,0.98,0.18,1.65,0.36c0.02,0.04,0.03,0.06,0.05,0.1C3.69,2.25,3.56,2.58,3.29,3.23
				C3.22,3.06,3.18,2.98,3.11,2.82z M3.6,1.68C3.33,1.62,3.19,1.6,2.92,1.56c0.16,0.31,0.24,0.46,0.4,0.78
				C3.43,2.08,3.49,1.95,3.6,1.68z"/>
			<path d="M3.98,5.1c0.1-0.39,0.15-0.59,0.23-0.99C4.17,4.02,4.13,3.88,4.06,3.68c-0.2,0.09-0.29,0.14-0.49,0.23
				C3.51,3.76,3.48,3.69,3.42,3.54C3.86,3.31,4.09,3.2,4.53,2.98C4.54,2.99,4.58,3.1,4.66,3.29C4.74,3.48,4.8,3.63,4.83,3.72
				c0.26,0.73,0.26,1.16,0.04,1.24C4.8,4.99,4.71,4.95,4.62,4.86c-0.09-0.1-0.17-0.22-0.24-0.37C4.28,4.92,4.23,5.14,4.12,5.56
				C4.06,5.38,4.03,5.28,3.98,5.1z M4.55,3.45c-0.15,0.07-0.22,0.1-0.37,0.17c0.03,0.1,0.06,0.19,0.1,0.28
				c0.09,0.24,0.16,0.41,0.23,0.51c0.07,0.1,0.14,0.13,0.22,0.1C4.8,4.49,4.82,4.41,4.81,4.28C4.8,4.14,4.75,3.95,4.65,3.69
				C4.64,3.65,4.6,3.57,4.55,3.45z"/>
			<path d="M4.22,5.94c0.47-0.16,0.7-0.24,1.17-0.4C5.43,5.72,5.46,5.81,5.5,5.99C5.03,6.14,4.8,6.21,4.33,6.36
				C4.29,6.19,4.26,6.11,4.22,5.94z"/>
			<path d="M5.06,6.76C5.23,6.71,5.4,6.78,5.56,7c0.16,0.21,0.28,0.54,0.35,0.97C5.99,8.45,5.98,8.85,5.9,9.13
				C5.82,9.41,5.68,9.56,5.48,9.59c-0.2,0.03-0.37-0.09-0.5-0.32C4.84,9.03,4.74,8.68,4.67,8.23c-0.06-0.41-0.06-0.74,0.01-1
				C4.75,6.96,4.87,6.81,5.06,6.76z M5.15,7.23c-0.14,0.03-0.24,0.14-0.3,0.31C4.79,7.7,4.78,7.92,4.82,8.19
				C4.87,8.5,4.94,8.73,5.04,8.89s0.23,0.22,0.39,0.19C5.74,9.03,5.87,8.66,5.76,8C5.72,7.7,5.64,7.49,5.53,7.36
				C5.42,7.23,5.29,7.19,5.15,7.23z"/>
			<path d="M4.96,10.05c0.07,0.06,0.1,0.09,0.16,0.16c-0.02,0.09-0.03,0.21-0.03,0.34c-0.01,0.14-0.01,0.26-0.01,0.36
				c0.01,0.19,0.03,0.35,0.07,0.46c0.04,0.12,0.08,0.17,0.14,0.17c0.04,0,0.08-0.04,0.11-0.1c0.03-0.07,0.07-0.24,0.1-0.5
				c0.01-0.12,0.02-0.18,0.03-0.3c0.03-0.25,0.06-0.43,0.11-0.53c0.05-0.1,0.11-0.16,0.18-0.17c0.09-0.01,0.17,0.08,0.25,0.27
				c0.07,0.19,0.12,0.44,0.13,0.76c0.02,0.42,0,0.72-0.05,0.89C6.09,11.79,6.06,11.76,6,11.7c0.02-0.07,0.03-0.18,0.04-0.32
				c0.01-0.14,0.02-0.27,0.01-0.39c-0.01-0.18-0.03-0.31-0.07-0.41s-0.08-0.14-0.13-0.14c-0.03,0-0.06,0.02-0.08,0.06
				s-0.04,0.09-0.06,0.15c-0.01,0.06-0.03,0.19-0.06,0.39c-0.01,0.12-0.02,0.18-0.04,0.31c-0.03,0.26-0.08,0.44-0.13,0.54
				c-0.05,0.1-0.12,0.16-0.21,0.16c-0.09,0-0.17-0.11-0.23-0.33c-0.07-0.22-0.1-0.51-0.12-0.87C4.91,10.54,4.92,10.27,4.96,10.05z"
				/>
		</g>
	</g>
</g>
</svg>
